<svg width="438" height="443" viewBox="0 0 438 443" fill="none" xmlns="http://www.w3.org/2000/svg">
<path d="M232.797 405.5C205.302 422.756 185.779 434.897 134.797 432C97.8789 425.053 78.3834 416.653 47.7971 386C17.6568 351.931 6.79709 319.5 10.7971 273.5C19.7971 227 35.9732 193.196 68.7971 140.5C117.355 63.4676 128.017 50.1895 152.297 17C152.297 17 166.5 35.5 204.5 94.5C242.5 153.5 285.797 226 298.297 281C322 273.5 334.526 255.961 353 255.5C370.018 256.141 363.703 253.532 393 273.5C404.131 281.087 414.619 288.616 428 285" stroke="#3B3B3B" stroke-width="20" stroke-linecap="round"/>
<path d="M135 285C176.5 292.5 175.5 259 212.5 256.5C249.5 254 252 291.5 289 284" stroke="#3B3B3B" stroke-width="20" stroke-linecap="round"/>
<path d="M270 349.5C311.5 356 309.5 323.62 346.5 321.12C383.5 318.62 386 356.12 423 348.62M372.5 39.5C349.419 75.7905 318.461 105.304 317 143.5C315.539 181.696 351.5 195 367.5 195C383.5 195 420.541 184.65 418 149C415.459 113.35 403.526 93.243 372.5 39.5Z" stroke="#3B3B3B" stroke-width="20" stroke-linecap="round"/>
<path d="M135 350.62C176.5 358.12 175.5 324.62 212.5 322.12C249.5 319.62 252 357.12 289 349.62" stroke="#3B3B3B" stroke-width="20" stroke-linecap="round"/>
</svg>
