<svg width="389" height="488" viewBox="0 0 389 488" fill="none" xmlns="http://www.w3.org/2000/svg">
<path d="M224 480.009L164.5 479.5" stroke="#3B3B3B" stroke-width="16" stroke-linecap="round"/>
<path d="M49 194H8" stroke="#3B3B3B" stroke-width="16" stroke-linecap="round"/>
<path d="M93 92L63 63" stroke="#3B3B3B" stroke-width="16" stroke-linecap="round"/>
<path d="M296 92L325 63" stroke="#3B3B3B" stroke-width="16" stroke-linecap="round"/>
<path d="M194 50V8" stroke="#3B3B3B" stroke-width="16" stroke-linecap="round"/>
<path d="M381 194H340" stroke="#3B3B3B" stroke-width="16" stroke-linecap="round"/>
<path d="M151.5 440H237M85.5 205C92.7275 146.172 131.5 104.5 193 103.5C254.5 102.5 301 145.5 302.5 205C304 264.5 280 275.5 260.5 304C241 332.5 243 338 237 362C231 386 237 405.5 237 405.5H151.5C151.5 405.5 156.5 384.5 151.5 362C146.5 339.5 138.353 322.534 125.5 304C93.6662 259.362 83.949 237.333 85.5 205Z" stroke="#3B3B3B" stroke-width="16" stroke-linecap="round"/>
</svg>
