<svg width="792" height="349" viewBox="0 0 792 349" fill="none" xmlns="http://www.w3.org/2000/svg">
<circle cx="174.5" cy="174.5" r="174.5" fill="#3B7688"/>
<circle cx="175" cy="174" r="134" fill="#90C0D3"/>
<rect x="99.0198" y="187.069" width="80.6744" height="20.7363" transform="rotate(18.6482 99.0198 187.069)" fill="#3B3B3B"/>
<ellipse cx="206.5" cy="149.5" rx="39.5" ry="57.5" fill="#3B3B3B"/>
<ellipse cx="206.5" cy="147" rx="25.5" ry="41" fill="#90C0D3"/>
<rect x="114" y="160.622" width="100" height="100" rx="24" transform="rotate(-27.1433 114 160.622)" fill="#3B3B3B"/>
<path d="M82.2143 168.774L113.89 203.179L68.2567 213.408L82.2143 168.774Z" fill="#3B3B3B"/>
<mask id="path-8-outside-1_20_7" maskUnits="userSpaceOnUse" x="376" y="89" width="308" height="71" fill="black">
<rect fill="white" x="376" y="89" width="308" height="71"/>
<path d="M384.16 157.136L386.176 151.376C389.44 152.656 392.512 152.976 395.392 152.336C398.272 151.632 400.928 149.36 403.36 145.52L406.624 140.336L407.296 139.472L433.024 90.8H440.128L409.6 147.056C407.552 150.96 405.12 153.872 402.304 155.792C399.552 157.712 396.608 158.736 393.472 158.864C390.4 158.992 387.296 158.416 384.16 157.136ZM407.104 145.904L378.016 90.8H385.6L410.944 140.048L407.104 145.904ZM447.571 158V107.6H454.483L477.331 146.288H474.451L497.683 107.6H504.019V158H497.779V115.376L499.027 115.952L477.331 151.856H474.259L452.371 115.568L453.811 115.28V158H447.571ZM523.415 158V107.6H530.231V129.872H562.007V107.6H568.823V158H562.007V135.728H530.231V158H523.415ZM619.492 158V146.864L619.204 145.04V126.416C619.204 122.128 617.988 118.832 615.556 116.528C613.188 114.224 609.636 113.072 604.9 113.072C601.636 113.072 598.532 113.616 595.588 114.704C592.644 115.792 590.148 117.232 588.1 119.024L585.028 113.936C587.588 111.76 590.66 110.096 594.244 108.944C597.828 107.728 601.604 107.12 605.572 107.12C612.1 107.12 617.124 108.752 620.644 112.016C624.228 115.216 626.02 120.112 626.02 126.704V158H619.492ZM602.116 158.48C598.34 158.48 595.044 157.872 592.228 156.656C589.476 155.376 587.364 153.648 585.892 151.472C584.42 149.232 583.684 146.672 583.684 143.792C583.684 141.168 584.292 138.8 585.508 136.688C586.788 134.512 588.836 132.784 591.652 131.504C594.532 130.16 598.372 129.488 603.172 129.488H620.548V134.576H603.364C598.5 134.576 595.108 135.44 593.188 137.168C591.332 138.896 590.404 141.04 590.404 143.6C590.404 146.48 591.524 148.784 593.764 150.512C596.004 152.24 599.14 153.104 603.172 153.104C607.012 153.104 610.308 152.24 613.06 150.512C615.876 148.72 617.924 146.16 619.204 142.832L620.74 147.536C619.46 150.864 617.22 153.52 614.02 155.504C610.884 157.488 606.916 158.48 602.116 158.48ZM676.709 158V139.856L677.957 141.296H660.869C654.405 141.296 649.349 139.888 645.701 137.072C642.053 134.256 640.229 130.16 640.229 124.784C640.229 119.024 642.181 114.736 646.085 111.92C649.989 109.04 655.205 107.6 661.733 107.6H682.949V158H676.709ZM639.845 158L653.669 138.608H660.773L647.237 158H639.845ZM676.709 137.84V111.536L677.957 113.552H661.925C657.253 113.552 653.605 114.448 650.981 116.24C648.421 118.032 647.141 120.944 647.141 124.976C647.141 132.464 651.909 136.208 661.445 136.208H677.957L676.709 137.84Z"/>
</mask>
<path d="M384.16 157.136L386.176 151.376C389.44 152.656 392.512 152.976 395.392 152.336C398.272 151.632 400.928 149.36 403.36 145.52L406.624 140.336L407.296 139.472L433.024 90.8H440.128L409.6 147.056C407.552 150.96 405.12 153.872 402.304 155.792C399.552 157.712 396.608 158.736 393.472 158.864C390.4 158.992 387.296 158.416 384.16 157.136ZM407.104 145.904L378.016 90.8H385.6L410.944 140.048L407.104 145.904ZM447.571 158V107.6H454.483L477.331 146.288H474.451L497.683 107.6H504.019V158H497.779V115.376L499.027 115.952L477.331 151.856H474.259L452.371 115.568L453.811 115.28V158H447.571ZM523.415 158V107.6H530.231V129.872H562.007V107.6H568.823V158H562.007V135.728H530.231V158H523.415ZM619.492 158V146.864L619.204 145.04V126.416C619.204 122.128 617.988 118.832 615.556 116.528C613.188 114.224 609.636 113.072 604.9 113.072C601.636 113.072 598.532 113.616 595.588 114.704C592.644 115.792 590.148 117.232 588.1 119.024L585.028 113.936C587.588 111.76 590.66 110.096 594.244 108.944C597.828 107.728 601.604 107.12 605.572 107.12C612.1 107.12 617.124 108.752 620.644 112.016C624.228 115.216 626.02 120.112 626.02 126.704V158H619.492ZM602.116 158.48C598.34 158.48 595.044 157.872 592.228 156.656C589.476 155.376 587.364 153.648 585.892 151.472C584.42 149.232 583.684 146.672 583.684 143.792C583.684 141.168 584.292 138.8 585.508 136.688C586.788 134.512 588.836 132.784 591.652 131.504C594.532 130.16 598.372 129.488 603.172 129.488H620.548V134.576H603.364C598.5 134.576 595.108 135.44 593.188 137.168C591.332 138.896 590.404 141.04 590.404 143.6C590.404 146.48 591.524 148.784 593.764 150.512C596.004 152.24 599.14 153.104 603.172 153.104C607.012 153.104 610.308 152.24 613.06 150.512C615.876 148.72 617.924 146.16 619.204 142.832L620.74 147.536C619.46 150.864 617.22 153.52 614.02 155.504C610.884 157.488 606.916 158.48 602.116 158.48ZM676.709 158V139.856L677.957 141.296H660.869C654.405 141.296 649.349 139.888 645.701 137.072C642.053 134.256 640.229 130.16 640.229 124.784C640.229 119.024 642.181 114.736 646.085 111.92C649.989 109.04 655.205 107.6 661.733 107.6H682.949V158H676.709ZM639.845 158L653.669 138.608H660.773L647.237 158H639.845ZM676.709 137.84V111.536L677.957 113.552H661.925C657.253 113.552 653.605 114.448 650.981 116.24C648.421 118.032 647.141 120.944 647.141 124.976C647.141 132.464 651.909 136.208 661.445 136.208H677.957L676.709 137.84Z" fill="#3B3B3B"/>
<path d="M384.16 157.136L383.216 156.806L382.902 157.703L383.782 158.062L384.16 157.136ZM386.176 151.376L386.541 150.445L385.575 150.066L385.232 151.046L386.176 151.376ZM395.392 152.336L395.609 153.312L395.619 153.31L395.629 153.307L395.392 152.336ZM403.36 145.52L404.205 146.055L404.206 146.053L403.36 145.52ZM406.624 140.336L405.835 139.722L405.804 139.761L405.778 139.803L406.624 140.336ZM407.296 139.472L408.085 140.086L408.139 140.017L408.18 139.939L407.296 139.472ZM433.024 90.8V89.8H432.421L432.14 90.3327L433.024 90.8ZM440.128 90.8L441.007 91.277L441.808 89.8H440.128V90.8ZM409.6 147.056L408.721 146.579L408.714 146.591L409.6 147.056ZM402.304 155.792L401.741 154.966L401.732 154.972L402.304 155.792ZM393.472 158.864L393.431 157.865L393.43 157.865L393.472 158.864ZM407.104 145.904L406.22 146.371L407.011 147.87L407.94 146.452L407.104 145.904ZM378.016 90.8V89.8H376.357L377.132 91.2668L378.016 90.8ZM385.6 90.8L386.489 90.3424L386.21 89.8H385.6V90.8ZM410.944 140.048L411.78 140.596L412.1 140.109L411.833 139.59L410.944 140.048ZM384.16 157.136L385.104 157.466L387.12 151.706L386.176 151.376L385.232 151.046L383.216 156.806L384.16 157.136ZM386.176 151.376L385.811 152.307C389.225 153.646 392.501 154.003 395.609 153.312L395.392 152.336L395.175 151.36C392.523 151.949 389.655 151.666 386.541 150.445L386.176 151.376ZM395.392 152.336L395.629 153.307C398.866 152.516 401.706 150 404.205 146.055L403.36 145.52L402.515 144.985C400.15 148.72 397.678 150.748 395.155 151.365L395.392 152.336ZM403.36 145.52L404.206 146.053L407.47 140.869L406.624 140.336L405.778 139.803L402.514 144.987L403.36 145.52ZM406.624 140.336L407.413 140.95L408.085 140.086L407.296 139.472L406.507 138.858L405.835 139.722L406.624 140.336ZM407.296 139.472L408.18 139.939L433.908 91.2673L433.024 90.8L432.14 90.3327L406.412 139.005L407.296 139.472ZM433.024 90.8V91.8H440.128V90.8V89.8H433.024V90.8ZM440.128 90.8L439.249 90.323L408.721 146.579L409.6 147.056L410.479 147.533L441.007 91.277L440.128 90.8ZM409.6 147.056L408.714 146.591C406.721 150.392 404.387 153.161 401.741 154.966L402.304 155.792L402.867 156.618C405.853 154.583 408.383 151.528 410.486 147.521L409.6 147.056ZM402.304 155.792L401.732 154.972C399.125 156.791 396.363 157.745 393.431 157.865L393.472 158.864L393.513 159.863C396.853 159.727 399.979 158.633 402.876 156.612L402.304 155.792ZM393.472 158.864L393.43 157.865C390.516 157.986 387.555 157.441 384.538 156.21L384.16 157.136L383.782 158.062C387.037 159.391 390.284 159.998 393.514 159.863L393.472 158.864ZM407.104 145.904L407.988 145.437L378.9 90.3332L378.016 90.8L377.132 91.2668L406.22 146.371L407.104 145.904ZM378.016 90.8V91.8H385.6V90.8V89.8H378.016V90.8ZM385.6 90.8L384.711 91.2576L410.055 140.506L410.944 140.048L411.833 139.59L386.489 90.3424L385.6 90.8ZM410.944 140.048L410.108 139.5L406.268 145.356L407.104 145.904L407.94 146.452L411.78 140.596L410.944 140.048ZM447.571 158H446.571V159H447.571V158ZM447.571 107.6V106.6H446.571V107.6H447.571ZM454.483 107.6L455.344 107.091L455.054 106.6H454.483V107.6ZM477.331 146.288V147.288H479.083L478.192 145.779L477.331 146.288ZM474.451 146.288L473.594 145.773L472.684 147.288H474.451V146.288ZM497.683 107.6V106.6H497.117L496.826 107.085L497.683 107.6ZM504.019 107.6H505.019V106.6H504.019V107.6ZM504.019 158V159H505.019V158H504.019ZM497.779 158H496.779V159H497.779V158ZM497.779 115.376L498.198 114.468L496.779 113.813V115.376H497.779ZM499.027 115.952L499.883 116.469L500.461 115.512L499.446 115.044L499.027 115.952ZM477.331 151.856V152.856H477.895L478.187 152.373L477.331 151.856ZM474.259 151.856L473.403 152.372L473.694 152.856H474.259V151.856ZM452.371 115.568L452.175 114.587L450.78 114.866L451.515 116.084L452.371 115.568ZM453.811 115.28H454.811V114.06L453.615 114.299L453.811 115.28ZM453.811 158V159H454.811V158H453.811ZM447.571 158H448.571V107.6H447.571H446.571V158H447.571ZM447.571 107.6V108.6H454.483V107.6V106.6H447.571V107.6ZM454.483 107.6L453.622 108.109L476.47 146.797L477.331 146.288L478.192 145.779L455.344 107.091L454.483 107.6ZM477.331 146.288V145.288H474.451V146.288V147.288H477.331V146.288ZM474.451 146.288L475.308 146.803L498.54 108.115L497.683 107.6L496.826 107.085L473.594 145.773L474.451 146.288ZM497.683 107.6V108.6H504.019V107.6V106.6H497.683V107.6ZM504.019 107.6H503.019V158H504.019H505.019V107.6H504.019ZM504.019 158V157H497.779V158V159H504.019V158ZM497.779 158H498.779V115.376H497.779H496.779V158H497.779ZM497.779 115.376L497.36 116.284L498.608 116.86L499.027 115.952L499.446 115.044L498.198 114.468L497.779 115.376ZM499.027 115.952L498.171 115.435L476.475 151.339L477.331 151.856L478.187 152.373L499.883 116.469L499.027 115.952ZM477.331 151.856V150.856H474.259V151.856V152.856H477.331V151.856ZM474.259 151.856L475.115 151.34L453.227 115.052L452.371 115.568L451.515 116.084L473.403 152.372L474.259 151.856ZM452.371 115.568L452.567 116.549L454.007 116.261L453.811 115.28L453.615 114.299L452.175 114.587L452.371 115.568ZM453.811 115.28H452.811V158H453.811H454.811V115.28H453.811ZM453.811 158V157H447.571V158V159H453.811V158ZM523.415 158H522.415V159H523.415V158ZM523.415 107.6V106.6H522.415V107.6H523.415ZM530.231 107.6H531.231V106.6H530.231V107.6ZM530.231 129.872H529.231V130.872H530.231V129.872ZM562.007 129.872V130.872H563.007V129.872H562.007ZM562.007 107.6V106.6H561.007V107.6H562.007ZM568.823 107.6H569.823V106.6H568.823V107.6ZM568.823 158V159H569.823V158H568.823ZM562.007 158H561.007V159H562.007V158ZM562.007 135.728H563.007V134.728H562.007V135.728ZM530.231 135.728V134.728H529.231V135.728H530.231ZM530.231 158V159H531.231V158H530.231ZM523.415 158H524.415V107.6H523.415H522.415V158H523.415ZM523.415 107.6V108.6H530.231V107.6V106.6H523.415V107.6ZM530.231 107.6H529.231V129.872H530.231H531.231V107.6H530.231ZM530.231 129.872V130.872H562.007V129.872V128.872H530.231V129.872ZM562.007 129.872H563.007V107.6H562.007H561.007V129.872H562.007ZM562.007 107.6V108.6H568.823V107.6V106.6H562.007V107.6ZM568.823 107.6H567.823V158H568.823H569.823V107.6H568.823ZM568.823 158V157H562.007V158V159H568.823V158ZM562.007 158H563.007V135.728H562.007H561.007V158H562.007ZM562.007 135.728V134.728H530.231V135.728V136.728H562.007V135.728ZM530.231 135.728H529.231V158H530.231H531.231V135.728H530.231ZM530.231 158V157H523.415V158V159H530.231V158ZM619.492 158H618.492V159H619.492V158ZM619.492 146.864H620.492V146.786L620.48 146.708L619.492 146.864ZM619.204 145.04H618.204V145.118L618.216 145.196L619.204 145.04ZM615.556 116.528L614.859 117.245L614.868 117.254L615.556 116.528ZM595.588 114.704L595.241 113.766L595.241 113.766L595.588 114.704ZM588.1 119.024L587.244 119.541L587.861 120.562L588.759 119.777L588.1 119.024ZM585.028 113.936L584.38 113.174L583.732 113.725L584.172 114.453L585.028 113.936ZM594.244 108.944L594.55 109.896L594.558 109.894L594.565 109.891L594.244 108.944ZM620.644 112.016L619.964 112.749L619.971 112.756L619.978 112.762L620.644 112.016ZM626.02 158V159H627.02V158H626.02ZM592.228 156.656L591.806 157.563L591.819 157.569L591.832 157.574L592.228 156.656ZM585.892 151.472L585.056 152.021L585.064 152.032L585.892 151.472ZM585.508 136.688L584.646 136.181L584.641 136.189L585.508 136.688ZM591.652 131.504L592.066 132.414L592.075 132.41L591.652 131.504ZM620.548 129.488H621.548V128.488H620.548V129.488ZM620.548 134.576V135.576H621.548V134.576H620.548ZM593.188 137.168L592.519 136.425L592.513 136.43L592.507 136.436L593.188 137.168ZM593.764 150.512L594.375 149.72L594.375 149.72L593.764 150.512ZM613.06 150.512L613.592 151.359L613.597 151.356L613.06 150.512ZM619.204 142.832L620.155 142.522L619.281 139.846L618.271 142.473L619.204 142.832ZM620.74 147.536L621.673 147.895L621.801 147.563L621.691 147.226L620.74 147.536ZM614.02 155.504L613.493 154.654L613.485 154.659L614.02 155.504ZM619.492 158H620.492V146.864H619.492H618.492V158H619.492ZM619.492 146.864L620.48 146.708L620.192 144.884L619.204 145.04L618.216 145.196L618.504 147.02L619.492 146.864ZM619.204 145.04H620.204V126.416H619.204H618.204V145.04H619.204ZM619.204 126.416H620.204C620.204 121.935 618.927 118.344 616.244 115.802L615.556 116.528L614.868 117.254C617.049 119.32 618.204 122.321 618.204 126.416H619.204ZM615.556 116.528L616.253 115.811C613.631 113.26 609.783 112.072 604.9 112.072V113.072V114.072C609.489 114.072 612.745 115.188 614.859 117.245L615.556 116.528ZM604.9 113.072V112.072C601.522 112.072 598.301 112.635 595.241 113.766L595.588 114.704L595.935 115.642C598.763 114.597 601.75 114.072 604.9 114.072V113.072ZM595.588 114.704L595.241 113.766C592.2 114.89 589.594 116.388 587.441 118.271L588.1 119.024L588.759 119.777C590.702 118.076 593.088 116.694 595.935 115.642L595.588 114.704ZM588.1 119.024L588.956 118.507L585.884 113.419L585.028 113.936L584.172 114.453L587.244 119.541L588.1 119.024ZM585.028 113.936L585.676 114.698C588.124 112.617 591.076 111.013 594.55 109.896L594.244 108.944L593.938 107.992C590.244 109.179 587.052 110.903 584.38 113.174L585.028 113.936ZM594.244 108.944L594.565 109.891C598.041 108.712 601.708 108.12 605.572 108.12V107.12V106.12C601.5 106.12 597.615 106.744 593.923 107.997L594.244 108.944ZM605.572 107.12V108.12C611.94 108.12 616.687 109.71 619.964 112.749L620.644 112.016L621.324 111.283C617.561 107.794 612.26 106.12 605.572 106.12V107.12ZM620.644 112.016L619.978 112.762C623.279 115.709 625.02 120.287 625.02 126.704H626.02H627.02C627.02 119.937 625.177 114.723 621.31 111.27L620.644 112.016ZM626.02 126.704H625.02V158H626.02H627.02V126.704H626.02ZM626.02 158V157H619.492V158V159H626.02V158ZM602.116 158.48V157.48C598.446 157.48 595.29 156.889 592.624 155.738L592.228 156.656L591.832 157.574C594.798 158.855 598.234 159.48 602.116 159.48V158.48ZM592.228 156.656L592.65 155.749C590.036 154.534 588.076 152.915 586.72 150.912L585.892 151.472L585.064 152.032C586.652 154.381 588.916 156.218 591.806 157.563L592.228 156.656ZM585.892 151.472L586.728 150.923C585.371 148.858 584.684 146.492 584.684 143.792H583.684H582.684C582.684 146.852 583.469 149.606 585.056 152.021L585.892 151.472ZM583.684 143.792H584.684C584.684 141.329 585.253 139.136 586.375 137.187L585.508 136.688L584.641 136.189C583.331 138.464 582.684 141.007 582.684 143.792H583.684ZM585.508 136.688L586.37 137.195C587.524 135.233 589.394 133.629 592.066 132.414L591.652 131.504L591.238 130.594C588.278 131.939 586.052 133.791 584.646 136.181L585.508 136.688ZM591.652 131.504L592.075 132.41C594.772 131.151 598.45 130.488 603.172 130.488V129.488V128.488C598.294 128.488 594.292 129.169 591.229 130.598L591.652 131.504ZM603.172 129.488V130.488H620.548V129.488V128.488H603.172V129.488ZM620.548 129.488H619.548V134.576H620.548H621.548V129.488H620.548ZM620.548 134.576V133.576H603.364V134.576V135.576H620.548V134.576ZM603.364 134.576V133.576C598.445 133.576 594.728 134.437 592.519 136.425L593.188 137.168L593.857 137.911C595.488 136.443 598.555 135.576 603.364 135.576V134.576ZM593.188 137.168L592.507 136.436C590.445 138.355 589.404 140.765 589.404 143.6H590.404H591.404C591.404 141.315 592.219 139.437 593.869 137.9L593.188 137.168ZM590.404 143.6H589.404C589.404 146.783 590.663 149.382 593.153 151.304L593.764 150.512L594.375 149.72C592.385 148.186 591.404 146.177 591.404 143.6H590.404ZM593.764 150.512L593.153 151.304C595.629 153.214 599.01 154.104 603.172 154.104V153.104V152.104C599.27 152.104 596.379 151.266 594.375 149.72L593.764 150.512ZM603.172 153.104V154.104C607.165 154.104 610.653 153.204 613.592 151.359L613.06 150.512L612.528 149.665C609.963 151.276 606.859 152.104 603.172 152.104V153.104ZM613.06 150.512L613.597 151.356C616.606 149.441 618.786 146.704 620.137 143.191L619.204 142.832L618.271 142.473C617.062 145.616 615.146 147.999 612.523 149.668L613.06 150.512ZM619.204 142.832L618.253 143.142L619.789 147.846L620.74 147.536L621.691 147.226L620.155 142.522L619.204 142.832ZM620.74 147.536L619.807 147.177C618.61 150.29 616.519 152.778 613.493 154.654L614.02 155.504L614.547 156.354C617.921 154.262 620.31 151.438 621.673 147.895L620.74 147.536ZM614.02 155.504L613.485 154.659C610.55 156.516 606.781 157.48 602.116 157.48V158.48V159.48C607.051 159.48 611.218 158.46 614.555 156.349L614.02 155.504ZM676.709 158H675.709V159H676.709V158ZM676.709 139.856L677.464 139.201L675.709 137.175V139.856H676.709ZM677.957 141.296V142.296H680.147L678.712 140.641L677.957 141.296ZM645.701 137.072L645.09 137.864L645.09 137.864L645.701 137.072ZM646.085 111.92L646.67 112.731L646.678 112.725L646.085 111.92ZM682.949 107.6H683.949V106.6H682.949V107.6ZM682.949 158V159H683.949V158H682.949ZM639.845 158L639.03 157.42L637.904 159H639.845V158ZM653.669 138.608V137.608H653.154L652.854 138.028L653.669 138.608ZM660.773 138.608L661.593 139.18L662.69 137.608H660.773V138.608ZM647.237 158V159H647.758L648.057 158.572L647.237 158ZM676.709 137.84H675.709V140.794L677.503 138.447L676.709 137.84ZM676.709 111.536L677.559 111.01L675.709 108.021V111.536H676.709ZM677.957 113.552V114.552H679.752L678.807 113.026L677.957 113.552ZM650.981 116.24L650.417 115.414L650.407 115.421L650.981 116.24ZM677.957 136.208L678.751 136.815L679.98 135.208H677.957V136.208ZM676.709 158H677.709V139.856H676.709H675.709V158H676.709ZM676.709 139.856L675.953 140.511L677.201 141.951L677.957 141.296L678.712 140.641L677.464 139.201L676.709 139.856ZM677.957 141.296V140.296H660.869V141.296V142.296H677.957V141.296ZM660.869 141.296V140.296C654.539 140.296 649.726 138.916 646.312 136.28L645.701 137.072L645.09 137.864C648.971 140.86 654.271 142.296 660.869 142.296V141.296ZM645.701 137.072L646.312 136.28C642.952 133.687 641.229 129.908 641.229 124.784H640.229H639.229C639.229 130.412 641.154 134.825 645.09 137.864L645.701 137.072ZM640.229 124.784H641.229C641.229 119.274 643.079 115.321 646.67 112.731L646.085 111.92L645.5 111.109C641.282 114.151 639.229 118.774 639.229 124.784H640.229ZM646.085 111.92L646.678 112.725C650.36 110.009 655.345 108.6 661.733 108.6V107.6V106.6C655.064 106.6 649.618 108.071 645.491 111.115L646.085 111.92ZM661.733 107.6V108.6H682.949V107.6V106.6H661.733V107.6ZM682.949 107.6H681.949V158H682.949H683.949V107.6H682.949ZM682.949 158V157H676.709V158V159H682.949V158ZM639.845 158L640.659 158.58L654.483 139.188L653.669 138.608L652.854 138.028L639.03 157.42L639.845 158ZM653.669 138.608V139.608H660.773V138.608V137.608H653.669V138.608ZM660.773 138.608L659.953 138.036L646.417 157.428L647.237 158L648.057 158.572L661.593 139.18L660.773 138.608ZM647.237 158V157H639.845V158V159H647.237V158ZM676.709 137.84H677.709V111.536H676.709H675.709V137.84H676.709ZM676.709 111.536L675.858 112.062L677.106 114.078L677.957 113.552L678.807 113.026L677.559 111.01L676.709 111.536ZM677.957 113.552V112.552H661.925V113.552V114.552H677.957V113.552ZM661.925 113.552V112.552C657.141 112.552 653.268 113.467 650.417 115.414L650.981 116.24L651.545 117.066C653.941 115.429 657.364 114.552 661.925 114.552V113.552ZM650.981 116.24L650.407 115.421C647.504 117.453 646.141 120.723 646.141 124.976H647.141H648.141C648.141 121.165 649.337 118.611 651.554 117.059L650.981 116.24ZM647.141 124.976H646.141C646.141 128.947 647.417 132.081 650.099 134.187C652.735 136.256 656.573 137.208 661.445 137.208V136.208V135.208C656.78 135.208 653.466 134.288 651.334 132.613C649.248 130.975 648.141 128.493 648.141 124.976H647.141ZM661.445 136.208V137.208H677.957V136.208V135.208H661.445V136.208ZM677.957 136.208L677.162 135.601L675.914 137.233L676.709 137.84L677.503 138.447L678.751 136.815L677.957 136.208Z" fill="#3B3B3B" mask="url(#path-8-outside-1_20_7)"/>
<mask id="path-10-outside-2_20_7" maskUnits="userSpaceOnUse" x="375" y="204" width="409" height="66" fill="black">
<rect fill="white" x="375" y="204" width="409" height="66"/>
<path d="M395.296 256V209.728L397.024 211.552H376.192V205.6H421.216V211.552H400.384L402.112 209.728V256H395.296ZM450.327 256.48C445.079 256.48 440.471 255.392 436.503 253.216C432.535 250.976 429.431 247.936 427.191 244.096C424.951 240.192 423.831 235.744 423.831 230.752C423.831 225.76 424.887 221.344 426.999 217.504C429.175 213.664 432.119 210.656 435.831 208.48C439.607 206.24 443.831 205.12 448.503 205.12C453.239 205.12 457.431 206.208 461.079 208.384C464.791 210.496 467.703 213.504 469.815 217.408C471.927 221.248 472.983 225.696 472.983 230.752C472.983 231.072 472.951 231.424 472.887 231.808C472.887 232.128 472.887 232.48 472.887 232.864H429.015V227.776H469.239L466.551 229.792C466.551 226.144 465.751 222.912 464.151 220.096C462.615 217.216 460.503 214.976 457.815 213.376C455.127 211.776 452.023 210.976 448.503 210.976C445.047 210.976 441.943 211.776 439.191 213.376C436.439 214.976 434.295 217.216 432.759 220.096C431.223 222.976 430.455 226.272 430.455 229.984V231.04C430.455 234.88 431.287 238.272 432.951 241.216C434.679 244.096 437.047 246.368 440.055 248.032C443.127 249.632 446.615 250.432 450.519 250.432C453.591 250.432 456.439 249.888 459.063 248.8C461.751 247.712 464.055 246.048 465.975 243.808L469.815 248.224C467.575 250.912 464.759 252.96 461.367 254.368C458.039 255.776 454.359 256.48 450.327 256.48ZM488.071 256V205.6H533.383V256H526.567V209.728L528.295 211.552H493.159L494.887 209.728V256H488.071ZM548.439 256.576C547.671 256.576 546.871 256.512 546.039 256.384C545.271 256.256 544.439 256.096 543.543 255.904L544.023 250.048C544.471 250.112 544.887 250.208 545.271 250.336C545.719 250.4 546.103 250.432 546.423 250.432C548.471 250.432 550.103 249.664 551.319 248.128C552.599 246.592 553.559 244.544 554.199 241.984C554.839 239.424 555.287 236.544 555.543 233.344C555.799 230.08 556.023 226.816 556.215 223.552L557.079 205.6H594.039V256H587.223V209.536L588.951 211.552H561.495L563.127 209.44L562.359 224.032C562.167 228.384 561.815 232.544 561.303 236.512C560.855 240.48 560.119 243.968 559.095 246.976C558.135 249.984 556.791 252.352 555.062 254.08C553.335 255.744 551.127 256.576 548.439 256.576ZM613.415 256V205.6H620.231V245.632L653.927 205.6H659.975V256H653.159V215.872L619.559 256H613.415ZM679.509 256V205.6H686.325V250.048H717.141V205.6H723.957V256H679.509ZM725.685 268.192V255.424L727.413 256H717.141V250.048H732.117V268.192H725.685ZM776.43 256V244.864L776.142 243.04V224.416C776.142 220.128 774.926 216.832 772.494 214.528C770.126 212.224 766.574 211.072 761.838 211.072C758.574 211.072 755.47 211.616 752.526 212.704C749.582 213.792 747.086 215.232 745.038 217.024L741.966 211.936C744.526 209.76 747.598 208.096 751.182 206.944C754.766 205.728 758.542 205.12 762.51 205.12C769.038 205.12 774.062 206.752 777.582 210.016C781.166 213.216 782.958 218.112 782.958 224.704V256H776.43ZM759.054 256.48C755.278 256.48 751.982 255.872 749.166 254.656C746.414 253.376 744.302 251.648 742.83 249.472C741.358 247.232 740.622 244.672 740.622 241.792C740.622 239.168 741.23 236.8 742.446 234.688C743.726 232.512 745.774 230.784 748.59 229.504C751.47 228.16 755.31 227.488 760.109 227.488H777.486V232.576H760.302C755.438 232.576 752.046 233.44 750.126 235.168C748.27 236.896 747.342 239.04 747.342 241.6C747.342 244.48 748.462 246.784 750.702 248.512C752.942 250.24 756.078 251.104 760.109 251.104C763.95 251.104 767.246 250.24 769.998 248.512C772.814 246.72 774.862 244.16 776.142 240.832L777.678 245.536C776.398 248.864 774.158 251.52 770.958 253.504C767.822 255.488 763.854 256.48 759.054 256.48Z"/>
</mask>
<path d="M395.296 256V209.728L397.024 211.552H376.192V205.6H421.216V211.552H400.384L402.112 209.728V256H395.296ZM450.327 256.48C445.079 256.48 440.471 255.392 436.503 253.216C432.535 250.976 429.431 247.936 427.191 244.096C424.951 240.192 423.831 235.744 423.831 230.752C423.831 225.76 424.887 221.344 426.999 217.504C429.175 213.664 432.119 210.656 435.831 208.48C439.607 206.24 443.831 205.12 448.503 205.12C453.239 205.12 457.431 206.208 461.079 208.384C464.791 210.496 467.703 213.504 469.815 217.408C471.927 221.248 472.983 225.696 472.983 230.752C472.983 231.072 472.951 231.424 472.887 231.808C472.887 232.128 472.887 232.48 472.887 232.864H429.015V227.776H469.239L466.551 229.792C466.551 226.144 465.751 222.912 464.151 220.096C462.615 217.216 460.503 214.976 457.815 213.376C455.127 211.776 452.023 210.976 448.503 210.976C445.047 210.976 441.943 211.776 439.191 213.376C436.439 214.976 434.295 217.216 432.759 220.096C431.223 222.976 430.455 226.272 430.455 229.984V231.04C430.455 234.88 431.287 238.272 432.951 241.216C434.679 244.096 437.047 246.368 440.055 248.032C443.127 249.632 446.615 250.432 450.519 250.432C453.591 250.432 456.439 249.888 459.063 248.8C461.751 247.712 464.055 246.048 465.975 243.808L469.815 248.224C467.575 250.912 464.759 252.96 461.367 254.368C458.039 255.776 454.359 256.48 450.327 256.48ZM488.071 256V205.6H533.383V256H526.567V209.728L528.295 211.552H493.159L494.887 209.728V256H488.071ZM548.439 256.576C547.671 256.576 546.871 256.512 546.039 256.384C545.271 256.256 544.439 256.096 543.543 255.904L544.023 250.048C544.471 250.112 544.887 250.208 545.271 250.336C545.719 250.4 546.103 250.432 546.423 250.432C548.471 250.432 550.103 249.664 551.319 248.128C552.599 246.592 553.559 244.544 554.199 241.984C554.839 239.424 555.287 236.544 555.543 233.344C555.799 230.08 556.023 226.816 556.215 223.552L557.079 205.6H594.039V256H587.223V209.536L588.951 211.552H561.495L563.127 209.44L562.359 224.032C562.167 228.384 561.815 232.544 561.303 236.512C560.855 240.48 560.119 243.968 559.095 246.976C558.135 249.984 556.791 252.352 555.062 254.08C553.335 255.744 551.127 256.576 548.439 256.576ZM613.415 256V205.6H620.231V245.632L653.927 205.6H659.975V256H653.159V215.872L619.559 256H613.415ZM679.509 256V205.6H686.325V250.048H717.141V205.6H723.957V256H679.509ZM725.685 268.192V255.424L727.413 256H717.141V250.048H732.117V268.192H725.685ZM776.43 256V244.864L776.142 243.04V224.416C776.142 220.128 774.926 216.832 772.494 214.528C770.126 212.224 766.574 211.072 761.838 211.072C758.574 211.072 755.47 211.616 752.526 212.704C749.582 213.792 747.086 215.232 745.038 217.024L741.966 211.936C744.526 209.76 747.598 208.096 751.182 206.944C754.766 205.728 758.542 205.12 762.51 205.12C769.038 205.12 774.062 206.752 777.582 210.016C781.166 213.216 782.958 218.112 782.958 224.704V256H776.43ZM759.054 256.48C755.278 256.48 751.982 255.872 749.166 254.656C746.414 253.376 744.302 251.648 742.83 249.472C741.358 247.232 740.622 244.672 740.622 241.792C740.622 239.168 741.23 236.8 742.446 234.688C743.726 232.512 745.774 230.784 748.59 229.504C751.47 228.16 755.31 227.488 760.109 227.488H777.486V232.576H760.302C755.438 232.576 752.046 233.44 750.126 235.168C748.27 236.896 747.342 239.04 747.342 241.6C747.342 244.48 748.462 246.784 750.702 248.512C752.942 250.24 756.078 251.104 760.109 251.104C763.95 251.104 767.246 250.24 769.998 248.512C772.814 246.72 774.862 244.16 776.142 240.832L777.678 245.536C776.398 248.864 774.158 251.52 770.958 253.504C767.822 255.488 763.854 256.48 759.054 256.48Z" fill="#3B3B3B"/>
<path d="M395.296 256H394.296V257H395.296V256ZM395.296 209.728L396.022 209.04L394.296 207.218V209.728H395.296ZM397.024 211.552V212.552H399.349L397.75 210.864L397.024 211.552ZM376.192 211.552H375.192V212.552H376.192V211.552ZM376.192 205.6V204.6H375.192V205.6H376.192ZM421.216 205.6H422.216V204.6H421.216V205.6ZM421.216 211.552V212.552H422.216V211.552H421.216ZM400.384 211.552L399.658 210.864L398.059 212.552H400.384V211.552ZM402.112 209.728H403.112V207.218L401.386 209.04L402.112 209.728ZM402.112 256V257H403.112V256H402.112ZM395.296 256H396.296V209.728H395.296H394.296V256H395.296ZM395.296 209.728L394.57 210.416L396.298 212.24L397.024 211.552L397.75 210.864L396.022 209.04L395.296 209.728ZM397.024 211.552V210.552H376.192V211.552V212.552H397.024V211.552ZM376.192 211.552H377.192V205.6H376.192H375.192V211.552H376.192ZM376.192 205.6V206.6H421.216V205.6V204.6H376.192V205.6ZM421.216 205.6H420.216V211.552H421.216H422.216V205.6H421.216ZM421.216 211.552V210.552H400.384V211.552V212.552H421.216V211.552ZM400.384 211.552L401.11 212.24L402.838 210.416L402.112 209.728L401.386 209.04L399.658 210.864L400.384 211.552ZM402.112 209.728H401.112V256H402.112H403.112V209.728H402.112ZM402.112 256V255H395.296V256V257H402.112V256ZM436.503 253.216L436.012 254.087L436.022 254.093L436.503 253.216ZM427.191 244.096L426.324 244.594L426.327 244.6L427.191 244.096ZM426.999 217.504L426.129 217.011L426.123 217.022L426.999 217.504ZM435.831 208.48L436.337 209.343L436.341 209.34L435.831 208.48ZM461.079 208.384L460.567 209.243L460.576 209.248L460.585 209.253L461.079 208.384ZM469.815 217.408L468.936 217.884L468.939 217.89L469.815 217.408ZM472.887 231.808L471.901 231.644L471.887 231.725V231.808H472.887ZM472.887 232.864V233.864H473.887V232.864H472.887ZM429.015 232.864H428.015V233.864H429.015V232.864ZM429.015 227.776V226.776H428.015V227.776H429.015ZM469.239 227.776L469.839 228.576L472.239 226.776H469.239V227.776ZM466.551 229.792H465.551V231.792L467.151 230.592L466.551 229.792ZM464.151 220.096L463.269 220.567L463.275 220.578L463.282 220.59L464.151 220.096ZM457.815 213.376L458.327 212.517L458.327 212.517L457.815 213.376ZM439.191 213.376L438.689 212.511L438.689 212.511L439.191 213.376ZM432.759 220.096L433.642 220.567L433.642 220.567L432.759 220.096ZM432.951 241.216L432.081 241.708L432.087 241.719L432.094 241.73L432.951 241.216ZM440.055 248.032L439.571 248.907L439.582 248.913L439.593 248.919L440.055 248.032ZM459.063 248.8L458.688 247.873L458.68 247.876L459.063 248.8ZM465.975 243.808L466.73 243.152L465.97 242.278L465.216 243.157L465.975 243.808ZM469.815 248.224L470.583 248.864L471.128 248.21L470.57 247.568L469.815 248.224ZM461.367 254.368L460.984 253.444L460.978 253.447L461.367 254.368ZM450.327 256.48V255.48C445.22 255.48 440.783 254.422 436.984 252.339L436.503 253.216L436.022 254.093C440.16 256.362 444.938 257.48 450.327 257.48V256.48ZM436.503 253.216L436.995 252.345C433.177 250.19 430.203 247.275 428.055 243.592L427.191 244.096L426.327 244.6C428.659 248.597 431.893 251.762 436.012 254.087L436.503 253.216ZM427.191 244.096L428.059 243.598C425.915 239.862 424.831 235.589 424.831 230.752H423.831H422.831C422.831 235.899 423.988 240.522 426.324 244.594L427.191 244.096ZM423.831 230.752H424.831C424.831 225.905 425.855 221.659 427.875 217.986L426.999 217.504L426.123 217.022C423.919 221.029 422.831 225.615 422.831 230.752H423.831ZM426.999 217.504L427.869 217.997C429.961 214.306 432.781 211.427 436.337 209.343L435.831 208.48L435.326 207.617C431.458 209.885 428.39 213.022 426.129 217.011L426.999 217.504ZM435.831 208.48L436.341 209.34C439.953 207.198 443.999 206.12 448.503 206.12V205.12V204.12C443.664 204.12 439.261 205.282 435.321 207.62L435.831 208.48ZM448.503 205.12V206.12C453.08 206.12 457.091 207.17 460.567 209.243L461.079 208.384L461.592 207.525C457.771 205.246 453.398 204.12 448.503 204.12V205.12ZM461.079 208.384L460.585 209.253C464.128 211.269 466.909 214.138 468.936 217.884L469.815 217.408L470.695 216.932C468.497 212.87 465.455 209.723 461.574 207.515L461.079 208.384ZM469.815 217.408L468.939 217.89C470.958 221.561 471.983 225.838 471.983 230.752H472.983H473.983C473.983 225.554 472.896 220.935 470.691 216.926L469.815 217.408ZM472.983 230.752H471.983C471.983 231.007 471.958 231.303 471.901 231.644L472.887 231.808L473.874 231.972C473.945 231.545 473.983 231.137 473.983 230.752H472.983ZM472.887 231.808H471.887C471.887 231.809 471.887 231.809 471.887 231.81C471.887 231.811 471.887 231.811 471.887 231.812C471.887 231.812 471.887 231.813 471.887 231.814C471.887 231.814 471.887 231.815 471.887 231.816C471.887 231.816 471.887 231.817 471.887 231.817C471.887 231.818 471.887 231.819 471.887 231.819C471.887 231.82 471.887 231.821 471.887 231.821C471.887 231.822 471.887 231.822 471.887 231.823C471.887 231.824 471.887 231.824 471.887 231.825C471.887 231.826 471.887 231.826 471.887 231.827C471.887 231.827 471.887 231.828 471.887 231.829C471.887 231.829 471.887 231.83 471.887 231.831C471.887 231.831 471.887 231.832 471.887 231.832C471.887 231.833 471.887 231.834 471.887 231.834C471.887 231.835 471.887 231.836 471.887 231.836C471.887 231.837 471.887 231.837 471.887 231.838C471.887 231.839 471.887 231.839 471.887 231.84C471.887 231.841 471.887 231.841 471.887 231.842C471.887 231.842 471.887 231.843 471.887 231.844C471.887 231.844 471.887 231.845 471.887 231.846C471.887 231.846 471.887 231.847 471.887 231.848C471.887 231.848 471.887 231.849 471.887 231.849C471.887 231.85 471.887 231.851 471.887 231.851C471.887 231.852 471.887 231.853 471.887 231.853C471.887 231.854 471.887 231.854 471.887 231.855C471.887 231.856 471.887 231.856 471.887 231.857C471.887 231.858 471.887 231.858 471.887 231.859C471.887 231.86 471.887 231.86 471.887 231.861C471.887 231.861 471.887 231.862 471.887 231.863C471.887 231.863 471.887 231.864 471.887 231.865C471.887 231.865 471.887 231.866 471.887 231.866C471.887 231.867 471.887 231.868 471.887 231.868C471.887 231.869 471.887 231.87 471.887 231.87C471.887 231.871 471.887 231.872 471.887 231.872C471.887 231.873 471.887 231.873 471.887 231.874C471.887 231.875 471.887 231.875 471.887 231.876C471.887 231.877 471.887 231.877 471.887 231.878C471.887 231.879 471.887 231.879 471.887 231.88C471.887 231.88 471.887 231.881 471.887 231.882C471.887 231.882 471.887 231.883 471.887 231.884C471.887 231.884 471.887 231.885 471.887 231.885C471.887 231.886 471.887 231.887 471.887 231.887C471.887 231.888 471.887 231.889 471.887 231.889C471.887 231.89 471.887 231.891 471.887 231.891C471.887 231.892 471.887 231.892 471.887 231.893C471.887 231.894 471.887 231.894 471.887 231.895C471.887 231.896 471.887 231.896 471.887 231.897C471.887 231.898 471.887 231.898 471.887 231.899C471.887 231.899 471.887 231.9 471.887 231.901C471.887 231.901 471.887 231.902 471.887 231.903C471.887 231.903 471.887 231.904 471.887 231.905C471.887 231.905 471.887 231.906 471.887 231.906C471.887 231.907 471.887 231.908 471.887 231.908C471.887 231.909 471.887 231.91 471.887 231.91C471.887 231.911 471.887 231.912 471.887 231.912C471.887 231.913 471.887 231.914 471.887 231.914C471.887 231.915 471.887 231.915 471.887 231.916C471.887 231.917 471.887 231.917 471.887 231.918C471.887 231.919 471.887 231.919 471.887 231.92C471.887 231.921 471.887 231.921 471.887 231.922C471.887 231.922 471.887 231.923 471.887 231.924C471.887 231.924 471.887 231.925 471.887 231.926C471.887 231.926 471.887 231.927 471.887 231.928C471.887 231.928 471.887 231.929 471.887 231.929C471.887 231.93 471.887 231.931 471.887 231.931C471.887 231.932 471.887 231.933 471.887 231.933C471.887 231.934 471.887 231.935 471.887 231.935C471.887 231.936 471.887 231.937 471.887 231.937C471.887 231.938 471.887 231.938 471.887 231.939C471.887 231.94 471.887 231.94 471.887 231.941C471.887 231.942 471.887 231.942 471.887 231.943C471.887 231.944 471.887 231.944 471.887 231.945C471.887 231.946 471.887 231.946 471.887 231.947C471.887 231.947 471.887 231.948 471.887 231.949C471.887 231.949 471.887 231.95 471.887 231.951C471.887 231.951 471.887 231.952 471.887 231.953C471.887 231.953 471.887 231.954 471.887 231.955C471.887 231.955 471.887 231.956 471.887 231.956C471.887 231.957 471.887 231.958 471.887 231.958C471.887 231.959 471.887 231.96 471.887 231.96C471.887 231.961 471.887 231.962 471.887 231.962C471.887 231.963 471.887 231.964 471.887 231.964C471.887 231.965 471.887 231.966 471.887 231.966C471.887 231.967 471.887 231.967 471.887 231.968C471.887 231.969 471.887 231.969 471.887 231.97C471.887 231.971 471.887 231.971 471.887 231.972C471.887 231.973 471.887 231.973 471.887 231.974C471.887 231.975 471.887 231.975 471.887 231.976C471.887 231.976 471.887 231.977 471.887 231.978C471.887 231.978 471.887 231.979 471.887 231.98C471.887 231.98 471.887 231.981 471.887 231.982C471.887 231.982 471.887 231.983 471.887 231.984C471.887 231.984 471.887 231.985 471.887 231.986C471.887 231.986 471.887 231.987 471.887 231.987C471.887 231.988 471.887 231.989 471.887 231.989C471.887 231.99 471.887 231.991 471.887 231.991C471.887 231.992 471.887 231.993 471.887 231.993C471.887 231.994 471.887 231.995 471.887 231.995C471.887 231.996 471.887 231.997 471.887 231.997C471.887 231.998 471.887 231.999 471.887 231.999C471.887 232 471.887 232 471.887 232.001C471.887 232.002 471.887 232.002 471.887 232.003C471.887 232.004 471.887 232.004 471.887 232.005C471.887 232.006 471.887 232.006 471.887 232.007C471.887 232.008 471.887 232.008 471.887 232.009C471.887 232.01 471.887 232.01 471.887 232.011C471.887 232.012 471.887 232.012 471.887 232.013C471.887 232.013 471.887 232.014 471.887 232.015C471.887 232.015 471.887 232.016 471.887 232.017C471.887 232.017 471.887 232.018 471.887 232.019C471.887 232.019 471.887 232.02 471.887 232.021C471.887 232.021 471.887 232.022 471.887 232.023C471.887 232.023 471.887 232.024 471.887 232.025C471.887 232.025 471.887 232.026 471.887 232.027C471.887 232.027 471.887 232.028 471.887 232.028C471.887 232.029 471.887 232.03 471.887 232.03C471.887 232.031 471.887 232.032 471.887 232.032C471.887 232.033 471.887 232.034 471.887 232.034C471.887 232.035 471.887 232.036 471.887 232.036C471.887 232.037 471.887 232.038 471.887 232.038C471.887 232.039 471.887 232.04 471.887 232.04C471.887 232.041 471.887 232.042 471.887 232.042C471.887 232.043 471.887 232.044 471.887 232.044C471.887 232.045 471.887 232.045 471.887 232.046C471.887 232.047 471.887 232.047 471.887 232.048C471.887 232.049 471.887 232.049 471.887 232.05C471.887 232.051 471.887 232.051 471.887 232.052C471.887 232.053 471.887 232.053 471.887 232.054C471.887 232.055 471.887 232.055 471.887 232.056C471.887 232.057 471.887 232.057 471.887 232.058C471.887 232.059 471.887 232.059 471.887 232.06C471.887 232.061 471.887 232.061 471.887 232.062C471.887 232.063 471.887 232.063 471.887 232.064C471.887 232.065 471.887 232.065 471.887 232.066C471.887 232.066 471.887 232.067 471.887 232.068C471.887 232.068 471.887 232.069 471.887 232.07C471.887 232.07 471.887 232.071 471.887 232.072C471.887 232.072 471.887 232.073 471.887 232.074C471.887 232.074 471.887 232.075 471.887 232.076C471.887 232.076 471.887 232.077 471.887 232.078C471.887 232.078 471.887 232.079 471.887 232.08C471.887 232.08 471.887 232.081 471.887 232.082C471.887 232.082 471.887 232.083 471.887 232.084C471.887 232.084 471.887 232.085 471.887 232.086C471.887 232.086 471.887 232.087 471.887 232.088C471.887 232.088 471.887 232.089 471.887 232.09C471.887 232.09 471.887 232.091 471.887 232.092C471.887 232.092 471.887 232.093 471.887 232.094C471.887 232.094 471.887 232.095 471.887 232.096C471.887 232.096 471.887 232.097 471.887 232.097C471.887 232.098 471.887 232.099 471.887 232.099C471.887 232.1 471.887 232.101 471.887 232.101C471.887 232.102 471.887 232.103 471.887 232.103C471.887 232.104 471.887 232.105 471.887 232.105C471.887 232.106 471.887 232.107 471.887 232.107C471.887 232.108 471.887 232.109 471.887 232.109C471.887 232.11 471.887 232.111 471.887 232.111C471.887 232.112 471.887 232.113 471.887 232.113C471.887 232.114 471.887 232.115 471.887 232.115C471.887 232.116 471.887 232.117 471.887 232.117C471.887 232.118 471.887 232.119 471.887 232.119C471.887 232.12 471.887 232.121 471.887 232.121C471.887 232.122 471.887 232.123 471.887 232.123C471.887 232.124 471.887 232.125 471.887 232.125C471.887 232.126 471.887 232.127 471.887 232.127C471.887 232.128 471.887 232.129 471.887 232.129C471.887 232.13 471.887 232.131 471.887 232.131C471.887 232.132 471.887 232.133 471.887 232.133C471.887 232.134 471.887 232.135 471.887 232.135C471.887 232.136 471.887 232.137 471.887 232.137C471.887 232.138 471.887 232.139 471.887 232.139C471.887 232.14 471.887 232.141 471.887 232.141C471.887 232.142 471.887 232.143 471.887 232.143C471.887 232.144 471.887 232.145 471.887 232.145C471.887 232.146 471.887 232.147 471.887 232.147C471.887 232.148 471.887 232.149 471.887 232.149C471.887 232.15 471.887 232.151 471.887 232.151C471.887 232.152 471.887 232.153 471.887 232.153C471.887 232.154 471.887 232.155 471.887 232.155C471.887 232.156 471.887 232.157 471.887 232.157C471.887 232.158 471.887 232.159 471.887 232.159C471.887 232.16 471.887 232.161 471.887 232.161C471.887 232.162 471.887 232.163 471.887 232.163C471.887 232.164 471.887 232.165 471.887 232.165C471.887 232.166 471.887 232.167 471.887 232.167C471.887 232.168 471.887 232.169 471.887 232.169C471.887 232.17 471.887 232.171 471.887 232.171C471.887 232.172 471.887 232.173 471.887 232.173C471.887 232.174 471.887 232.175 471.887 232.175C471.887 232.176 471.887 232.177 471.887 232.177C471.887 232.178 471.887 232.179 471.887 232.179C471.887 232.18 471.887 232.181 471.887 232.181C471.887 232.182 471.887 232.183 471.887 232.184C471.887 232.184 471.887 232.185 471.887 232.186C471.887 232.186 471.887 232.187 471.887 232.188C471.887 232.188 471.887 232.189 471.887 232.19C471.887 232.19 471.887 232.191 471.887 232.192C471.887 232.192 471.887 232.193 471.887 232.194C471.887 232.194 471.887 232.195 471.887 232.196C471.887 232.196 471.887 232.197 471.887 232.198C471.887 232.198 471.887 232.199 471.887 232.2C471.887 232.2 471.887 232.201 471.887 232.202C471.887 232.202 471.887 232.203 471.887 232.204C471.887 232.204 471.887 232.205 471.887 232.206C471.887 232.206 471.887 232.207 471.887 232.208C471.887 232.208 471.887 232.209 471.887 232.21C471.887 232.21 471.887 232.211 471.887 232.212C471.887 232.212 471.887 232.213 471.887 232.214C471.887 232.215 471.887 232.215 471.887 232.216C471.887 232.217 471.887 232.217 471.887 232.218C471.887 232.219 471.887 232.219 471.887 232.22C471.887 232.221 471.887 232.221 471.887 232.222C471.887 232.223 471.887 232.223 471.887 232.224C471.887 232.225 471.887 232.225 471.887 232.226C471.887 232.227 471.887 232.227 471.887 232.228C471.887 232.229 471.887 232.229 471.887 232.23C471.887 232.231 471.887 232.231 471.887 232.232C471.887 232.233 471.887 232.233 471.887 232.234C471.887 232.235 471.887 232.236 471.887 232.236C471.887 232.237 471.887 232.238 471.887 232.238C471.887 232.239 471.887 232.24 471.887 232.24C471.887 232.241 471.887 232.242 471.887 232.242C471.887 232.243 471.887 232.244 471.887 232.244C471.887 232.245 471.887 232.246 471.887 232.246C471.887 232.247 471.887 232.248 471.887 232.248C471.887 232.249 471.887 232.25 471.887 232.25C471.887 232.251 471.887 232.252 471.887 232.252C471.887 232.253 471.887 232.254 471.887 232.255C471.887 232.255 471.887 232.256 471.887 232.257C471.887 232.257 471.887 232.258 471.887 232.259C471.887 232.259 471.887 232.26 471.887 232.261C471.887 232.261 471.887 232.262 471.887 232.263C471.887 232.263 471.887 232.264 471.887 232.265C471.887 232.265 471.887 232.266 471.887 232.267C471.887 232.267 471.887 232.268 471.887 232.269C471.887 232.27 471.887 232.27 471.887 232.271C471.887 232.272 471.887 232.272 471.887 232.273C471.887 232.274 471.887 232.274 471.887 232.275C471.887 232.276 471.887 232.276 471.887 232.277C471.887 232.278 471.887 232.278 471.887 232.279C471.887 232.28 471.887 232.28 471.887 232.281C471.887 232.282 471.887 232.283 471.887 232.283C471.887 232.284 471.887 232.285 471.887 232.285C471.887 232.286 471.887 232.287 471.887 232.287C471.887 232.288 471.887 232.289 471.887 232.289C471.887 232.29 471.887 232.291 471.887 232.291C471.887 232.292 471.887 232.293 471.887 232.293C471.887 232.294 471.887 232.295 471.887 232.296C471.887 232.296 471.887 232.297 471.887 232.298C471.887 232.298 471.887 232.299 471.887 232.3C471.887 232.3 471.887 232.301 471.887 232.302C471.887 232.302 471.887 232.303 471.887 232.304C471.887 232.304 471.887 232.305 471.887 232.306C471.887 232.307 471.887 232.307 471.887 232.308C471.887 232.309 471.887 232.309 471.887 232.31C471.887 232.311 471.887 232.311 471.887 232.312C471.887 232.313 471.887 232.313 471.887 232.314C471.887 232.315 471.887 232.315 471.887 232.316C471.887 232.317 471.887 232.318 471.887 232.318C471.887 232.319 471.887 232.32 471.887 232.32C471.887 232.321 471.887 232.322 471.887 232.322C471.887 232.323 471.887 232.324 471.887 232.324C471.887 232.325 471.887 232.326 471.887 232.326C471.887 232.327 471.887 232.328 471.887 232.329C471.887 232.329 471.887 232.33 471.887 232.331C471.887 232.331 471.887 232.332 471.887 232.333C471.887 232.333 471.887 232.334 471.887 232.335C471.887 232.335 471.887 232.336 471.887 232.337C471.887 232.337 471.887 232.338 471.887 232.339C471.887 232.34 471.887 232.34 471.887 232.341C471.887 232.342 471.887 232.342 471.887 232.343C471.887 232.344 471.887 232.344 471.887 232.345C471.887 232.346 471.887 232.346 471.887 232.347C471.887 232.348 471.887 232.349 471.887 232.349C471.887 232.35 471.887 232.351 471.887 232.351C471.887 232.352 471.887 232.353 471.887 232.353C471.887 232.354 471.887 232.355 471.887 232.355C471.887 232.356 471.887 232.357 471.887 232.358C471.887 232.358 471.887 232.359 471.887 232.36C471.887 232.36 471.887 232.361 471.887 232.362C471.887 232.362 471.887 232.363 471.887 232.364C471.887 232.364 471.887 232.365 471.887 232.366C471.887 232.367 471.887 232.367 471.887 232.368C471.887 232.369 471.887 232.369 471.887 232.37C471.887 232.371 471.887 232.371 471.887 232.372C471.887 232.373 471.887 232.374 471.887 232.374C471.887 232.375 471.887 232.376 471.887 232.376C471.887 232.377 471.887 232.378 471.887 232.378C471.887 232.379 471.887 232.38 471.887 232.38C471.887 232.381 471.887 232.382 471.887 232.383C471.887 232.383 471.887 232.384 471.887 232.385C471.887 232.385 471.887 232.386 471.887 232.387C471.887 232.387 471.887 232.388 471.887 232.389C471.887 232.39 471.887 232.39 471.887 232.391C471.887 232.392 471.887 232.392 471.887 232.393C471.887 232.394 471.887 232.394 471.887 232.395C471.887 232.396 471.887 232.396 471.887 232.397C471.887 232.398 471.887 232.399 471.887 232.399C471.887 232.4 471.887 232.401 471.887 232.401C471.887 232.402 471.887 232.403 471.887 232.403C471.887 232.404 471.887 232.405 471.887 232.406C471.887 232.406 471.887 232.407 471.887 232.408C471.887 232.408 471.887 232.409 471.887 232.41C471.887 232.41 471.887 232.411 471.887 232.412C471.887 232.413 471.887 232.413 471.887 232.414C471.887 232.415 471.887 232.415 471.887 232.416C471.887 232.417 471.887 232.417 471.887 232.418C471.887 232.419 471.887 232.42 471.887 232.42C471.887 232.421 471.887 232.422 471.887 232.422C471.887 232.423 471.887 232.424 471.887 232.424C471.887 232.425 471.887 232.426 471.887 232.427C471.887 232.427 471.887 232.428 471.887 232.429C471.887 232.429 471.887 232.43 471.887 232.431C471.887 232.431 471.887 232.432 471.887 232.433C471.887 232.434 471.887 232.434 471.887 232.435C471.887 232.436 471.887 232.436 471.887 232.437C471.887 232.438 471.887 232.438 471.887 232.439C471.887 232.44 471.887 232.441 471.887 232.441C471.887 232.442 471.887 232.443 471.887 232.443C471.887 232.444 471.887 232.445 471.887 232.445C471.887 232.446 471.887 232.447 471.887 232.448C471.887 232.448 471.887 232.449 471.887 232.45C471.887 232.45 471.887 232.451 471.887 232.452C471.887 232.453 471.887 232.453 471.887 232.454C471.887 232.455 471.887 232.455 471.887 232.456C471.887 232.457 471.887 232.457 471.887 232.458C471.887 232.459 471.887 232.46 471.887 232.46C471.887 232.461 471.887 232.462 471.887 232.462C471.887 232.463 471.887 232.464 471.887 232.465C471.887 232.465 471.887 232.466 471.887 232.467C471.887 232.467 471.887 232.468 471.887 232.469C471.887 232.469 471.887 232.47 471.887 232.471C471.887 232.472 471.887 232.472 471.887 232.473C471.887 232.474 471.887 232.474 471.887 232.475C471.887 232.476 471.887 232.477 471.887 232.477C471.887 232.478 471.887 232.479 471.887 232.479C471.887 232.48 471.887 232.481 471.887 232.481C471.887 232.482 471.887 232.483 471.887 232.484C471.887 232.484 471.887 232.485 471.887 232.486C471.887 232.486 471.887 232.487 471.887 232.488C471.887 232.489 471.887 232.489 471.887 232.49C471.887 232.491 471.887 232.491 471.887 232.492C471.887 232.493 471.887 232.493 471.887 232.494C471.887 232.495 471.887 232.496 471.887 232.496C471.887 232.497 471.887 232.498 471.887 232.498C471.887 232.499 471.887 232.5 471.887 232.501C471.887 232.501 471.887 232.502 471.887 232.503C471.887 232.503 471.887 232.504 471.887 232.505C471.887 232.506 471.887 232.506 471.887 232.507C471.887 232.508 471.887 232.508 471.887 232.509C471.887 232.51 471.887 232.511 471.887 232.511C471.887 232.512 471.887 232.513 471.887 232.513C471.887 232.514 471.887 232.515 471.887 232.516C471.887 232.516 471.887 232.517 471.887 232.518C471.887 232.518 471.887 232.519 471.887 232.52C471.887 232.52 471.887 232.521 471.887 232.522C471.887 232.523 471.887 232.523 471.887 232.524C471.887 232.525 471.887 232.525 471.887 232.526C471.887 232.527 471.887 232.528 471.887 232.528C471.887 232.529 471.887 232.53 471.887 232.53C471.887 232.531 471.887 232.532 471.887 232.533C471.887 232.533 471.887 232.534 471.887 232.535C471.887 232.535 471.887 232.536 471.887 232.537C471.887 232.538 471.887 232.538 471.887 232.539C471.887 232.54 471.887 232.54 471.887 232.541C471.887 232.542 471.887 232.543 471.887 232.543C471.887 232.544 471.887 232.545 471.887 232.545C471.887 232.546 471.887 232.547 471.887 232.548C471.887 232.548 471.887 232.549 471.887 232.55C471.887 232.55 471.887 232.551 471.887 232.552C471.887 232.553 471.887 232.553 471.887 232.554C471.887 232.555 471.887 232.555 471.887 232.556C471.887 232.557 471.887 232.558 471.887 232.558C471.887 232.559 471.887 232.56 471.887 232.56C471.887 232.561 471.887 232.562 471.887 232.563C471.887 232.563 471.887 232.564 471.887 232.565C471.887 232.565 471.887 232.566 471.887 232.567C471.887 232.568 471.887 232.568 471.887 232.569C471.887 232.57 471.887 232.571 471.887 232.571C471.887 232.572 471.887 232.573 471.887 232.573C471.887 232.574 471.887 232.575 471.887 232.576C471.887 232.576 471.887 232.577 471.887 232.578C471.887 232.578 471.887 232.579 471.887 232.58C471.887 232.581 471.887 232.581 471.887 232.582C471.887 232.583 471.887 232.583 471.887 232.584C471.887 232.585 471.887 232.586 471.887 232.586C471.887 232.587 471.887 232.588 471.887 232.588C471.887 232.589 471.887 232.59 471.887 232.591C471.887 232.591 471.887 232.592 471.887 232.593C471.887 232.594 471.887 232.594 471.887 232.595C471.887 232.596 471.887 232.596 471.887 232.597C471.887 232.598 471.887 232.599 471.887 232.599C471.887 232.6 471.887 232.601 471.887 232.601C471.887 232.602 471.887 232.603 471.887 232.604C471.887 232.604 471.887 232.605 471.887 232.606C471.887 232.606 471.887 232.607 471.887 232.608C471.887 232.609 471.887 232.609 471.887 232.61C471.887 232.611 471.887 232.612 471.887 232.612C471.887 232.613 471.887 232.614 471.887 232.614C471.887 232.615 471.887 232.616 471.887 232.617C471.887 232.617 471.887 232.618 471.887 232.619C471.887 232.619 471.887 232.62 471.887 232.621C471.887 232.622 471.887 232.622 471.887 232.623C471.887 232.624 471.887 232.625 471.887 232.625C471.887 232.626 471.887 232.627 471.887 232.627C471.887 232.628 471.887 232.629 471.887 232.63C471.887 232.63 471.887 232.631 471.887 232.632C471.887 232.633 471.887 232.633 471.887 232.634C471.887 232.635 471.887 232.635 471.887 232.636C471.887 232.637 471.887 232.638 471.887 232.638C471.887 232.639 471.887 232.64 471.887 232.64C471.887 232.641 471.887 232.642 471.887 232.643C471.887 232.643 471.887 232.644 471.887 232.645C471.887 232.646 471.887 232.646 471.887 232.647C471.887 232.648 471.887 232.648 471.887 232.649C471.887 232.65 471.887 232.651 471.887 232.651C471.887 232.652 471.887 232.653 471.887 232.654C471.887 232.654 471.887 232.655 471.887 232.656C471.887 232.656 471.887 232.657 471.887 232.658C471.887 232.659 471.887 232.659 471.887 232.66C471.887 232.661 471.887 232.662 471.887 232.662C471.887 232.663 471.887 232.664 471.887 232.664C471.887 232.665 471.887 232.666 471.887 232.667C471.887 232.667 471.887 232.668 471.887 232.669C471.887 232.67 471.887 232.67 471.887 232.671C471.887 232.672 471.887 232.672 471.887 232.673C471.887 232.674 471.887 232.675 471.887 232.675C471.887 232.676 471.887 232.677 471.887 232.678C471.887 232.678 471.887 232.679 471.887 232.68C471.887 232.681 471.887 232.681 471.887 232.682C471.887 232.683 471.887 232.683 471.887 232.684C471.887 232.685 471.887 232.686 471.887 232.686C471.887 232.687 471.887 232.688 471.887 232.689C471.887 232.689 471.887 232.69 471.887 232.691C471.887 232.691 471.887 232.692 471.887 232.693C471.887 232.694 471.887 232.694 471.887 232.695C471.887 232.696 471.887 232.697 471.887 232.697C471.887 232.698 471.887 232.699 471.887 232.7C471.887 232.7 471.887 232.701 471.887 232.702C471.887 232.702 471.887 232.703 471.887 232.704C471.887 232.705 471.887 232.705 471.887 232.706C471.887 232.707 471.887 232.708 471.887 232.708C471.887 232.709 471.887 232.71 471.887 232.71C471.887 232.711 471.887 232.712 471.887 232.713C471.887 232.713 471.887 232.714 471.887 232.715C471.887 232.716 471.887 232.716 471.887 232.717C471.887 232.718 471.887 232.719 471.887 232.719C471.887 232.72 471.887 232.721 471.887 232.721C471.887 232.722 471.887 232.723 471.887 232.724C471.887 232.724 471.887 232.725 471.887 232.726C471.887 232.727 471.887 232.727 471.887 232.728C471.887 232.729 471.887 232.73 471.887 232.73C471.887 232.731 471.887 232.732 471.887 232.733C471.887 232.733 471.887 232.734 471.887 232.735C471.887 232.735 471.887 232.736 471.887 232.737C471.887 232.738 471.887 232.738 471.887 232.739C471.887 232.74 471.887 232.741 471.887 232.741C471.887 232.742 471.887 232.743 471.887 232.744C471.887 232.744 471.887 232.745 471.887 232.746C471.887 232.747 471.887 232.747 471.887 232.748C471.887 232.749 471.887 232.749 471.887 232.75C471.887 232.751 471.887 232.752 471.887 232.752C471.887 232.753 471.887 232.754 471.887 232.755C471.887 232.755 471.887 232.756 471.887 232.757C471.887 232.758 471.887 232.758 471.887 232.759C471.887 232.76 471.887 232.761 471.887 232.761C471.887 232.762 471.887 232.763 471.887 232.763C471.887 232.764 471.887 232.765 471.887 232.766C471.887 232.766 471.887 232.767 471.887 232.768C471.887 232.769 471.887 232.769 471.887 232.77C471.887 232.771 471.887 232.772 471.887 232.772C471.887 232.773 471.887 232.774 471.887 232.775C471.887 232.775 471.887 232.776 471.887 232.777C471.887 232.778 471.887 232.778 471.887 232.779C471.887 232.78 471.887 232.781 471.887 232.781C471.887 232.782 471.887 232.783 471.887 232.783C471.887 232.784 471.887 232.785 471.887 232.786C471.887 232.786 471.887 232.787 471.887 232.788C471.887 232.789 471.887 232.789 471.887 232.79C471.887 232.791 471.887 232.792 471.887 232.792C471.887 232.793 471.887 232.794 471.887 232.795C471.887 232.795 471.887 232.796 471.887 232.797C471.887 232.798 471.887 232.798 471.887 232.799C471.887 232.8 471.887 232.801 471.887 232.801C471.887 232.802 471.887 232.803 471.887 232.804C471.887 232.804 471.887 232.805 471.887 232.806C471.887 232.806 471.887 232.807 471.887 232.808C471.887 232.809 471.887 232.809 471.887 232.81C471.887 232.811 471.887 232.812 471.887 232.812C471.887 232.813 471.887 232.814 471.887 232.815C471.887 232.815 471.887 232.816 471.887 232.817C471.887 232.818 471.887 232.818 471.887 232.819C471.887 232.82 471.887 232.821 471.887 232.821C471.887 232.822 471.887 232.823 471.887 232.824C471.887 232.824 471.887 232.825 471.887 232.826C471.887 232.827 471.887 232.827 471.887 232.828C471.887 232.829 471.887 232.83 471.887 232.83C471.887 232.831 471.887 232.832 471.887 232.833C471.887 232.833 471.887 232.834 471.887 232.835C471.887 232.836 471.887 232.836 471.887 232.837C471.887 232.838 471.887 232.839 471.887 232.839C471.887 232.84 471.887 232.841 471.887 232.842C471.887 232.842 471.887 232.843 471.887 232.844C471.887 232.845 471.887 232.845 471.887 232.846C471.887 232.847 471.887 232.848 471.887 232.848C471.887 232.849 471.887 232.85 471.887 232.851C471.887 232.851 471.887 232.852 471.887 232.853C471.887 232.854 471.887 232.854 471.887 232.855C471.887 232.856 471.887 232.857 471.887 232.857C471.887 232.858 471.887 232.859 471.887 232.86C471.887 232.86 471.887 232.861 471.887 232.862C471.887 232.862 471.887 232.863 471.887 232.864H472.887H473.887C473.887 232.863 473.887 232.862 473.887 232.862C473.887 232.861 473.887 232.86 473.887 232.86C473.887 232.859 473.887 232.858 473.887 232.857C473.887 232.857 473.887 232.856 473.887 232.855C473.887 232.854 473.887 232.854 473.887 232.853C473.887 232.852 473.887 232.851 473.887 232.851C473.887 232.85 473.887 232.849 473.887 232.848C473.887 232.848 473.887 232.847 473.887 232.846C473.887 232.845 473.887 232.845 473.887 232.844C473.887 232.843 473.887 232.842 473.887 232.842C473.887 232.841 473.887 232.84 473.887 232.839C473.887 232.839 473.887 232.838 473.887 232.837C473.887 232.836 473.887 232.836 473.887 232.835C473.887 232.834 473.887 232.833 473.887 232.833C473.887 232.832 473.887 232.831 473.887 232.83C473.887 232.83 473.887 232.829 473.887 232.828C473.887 232.827 473.887 232.827 473.887 232.826C473.887 232.825 473.887 232.824 473.887 232.824C473.887 232.823 473.887 232.822 473.887 232.821C473.887 232.821 473.887 232.82 473.887 232.819C473.887 232.818 473.887 232.818 473.887 232.817C473.887 232.816 473.887 232.815 473.887 232.815C473.887 232.814 473.887 232.813 473.887 232.812C473.887 232.812 473.887 232.811 473.887 232.81C473.887 232.809 473.887 232.809 473.887 232.808C473.887 232.807 473.887 232.806 473.887 232.806C473.887 232.805 473.887 232.804 473.887 232.804C473.887 232.803 473.887 232.802 473.887 232.801C473.887 232.801 473.887 232.8 473.887 232.799C473.887 232.798 473.887 232.798 473.887 232.797C473.887 232.796 473.887 232.795 473.887 232.795C473.887 232.794 473.887 232.793 473.887 232.792C473.887 232.792 473.887 232.791 473.887 232.79C473.887 232.789 473.887 232.789 473.887 232.788C473.887 232.787 473.887 232.786 473.887 232.786C473.887 232.785 473.887 232.784 473.887 232.783C473.887 232.783 473.887 232.782 473.887 232.781C473.887 232.781 473.887 232.78 473.887 232.779C473.887 232.778 473.887 232.778 473.887 232.777C473.887 232.776 473.887 232.775 473.887 232.775C473.887 232.774 473.887 232.773 473.887 232.772C473.887 232.772 473.887 232.771 473.887 232.77C473.887 232.769 473.887 232.769 473.887 232.768C473.887 232.767 473.887 232.766 473.887 232.766C473.887 232.765 473.887 232.764 473.887 232.763C473.887 232.763 473.887 232.762 473.887 232.761C473.887 232.761 473.887 232.76 473.887 232.759C473.887 232.758 473.887 232.758 473.887 232.757C473.887 232.756 473.887 232.755 473.887 232.755C473.887 232.754 473.887 232.753 473.887 232.752C473.887 232.752 473.887 232.751 473.887 232.75C473.887 232.749 473.887 232.749 473.887 232.748C473.887 232.747 473.887 232.747 473.887 232.746C473.887 232.745 473.887 232.744 473.887 232.744C473.887 232.743 473.887 232.742 473.887 232.741C473.887 232.741 473.887 232.74 473.887 232.739C473.887 232.738 473.887 232.738 473.887 232.737C473.887 232.736 473.887 232.735 473.887 232.735C473.887 232.734 473.887 232.733 473.887 232.733C473.887 232.732 473.887 232.731 473.887 232.73C473.887 232.73 473.887 232.729 473.887 232.728C473.887 232.727 473.887 232.727 473.887 232.726C473.887 232.725 473.887 232.724 473.887 232.724C473.887 232.723 473.887 232.722 473.887 232.721C473.887 232.721 473.887 232.72 473.887 232.719C473.887 232.719 473.887 232.718 473.887 232.717C473.887 232.716 473.887 232.716 473.887 232.715C473.887 232.714 473.887 232.713 473.887 232.713C473.887 232.712 473.887 232.711 473.887 232.71C473.887 232.71 473.887 232.709 473.887 232.708C473.887 232.708 473.887 232.707 473.887 232.706C473.887 232.705 473.887 232.705 473.887 232.704C473.887 232.703 473.887 232.702 473.887 232.702C473.887 232.701 473.887 232.7 473.887 232.7C473.887 232.699 473.887 232.698 473.887 232.697C473.887 232.697 473.887 232.696 473.887 232.695C473.887 232.694 473.887 232.694 473.887 232.693C473.887 232.692 473.887 232.691 473.887 232.691C473.887 232.69 473.887 232.689 473.887 232.689C473.887 232.688 473.887 232.687 473.887 232.686C473.887 232.686 473.887 232.685 473.887 232.684C473.887 232.683 473.887 232.683 473.887 232.682C473.887 232.681 473.887 232.681 473.887 232.68C473.887 232.679 473.887 232.678 473.887 232.678C473.887 232.677 473.887 232.676 473.887 232.675C473.887 232.675 473.887 232.674 473.887 232.673C473.887 232.672 473.887 232.672 473.887 232.671C473.887 232.67 473.887 232.67 473.887 232.669C473.887 232.668 473.887 232.667 473.887 232.667C473.887 232.666 473.887 232.665 473.887 232.664C473.887 232.664 473.887 232.663 473.887 232.662C473.887 232.662 473.887 232.661 473.887 232.66C473.887 232.659 473.887 232.659 473.887 232.658C473.887 232.657 473.887 232.656 473.887 232.656C473.887 232.655 473.887 232.654 473.887 232.654C473.887 232.653 473.887 232.652 473.887 232.651C473.887 232.651 473.887 232.65 473.887 232.649C473.887 232.648 473.887 232.648 473.887 232.647C473.887 232.646 473.887 232.646 473.887 232.645C473.887 232.644 473.887 232.643 473.887 232.643C473.887 232.642 473.887 232.641 473.887 232.64C473.887 232.64 473.887 232.639 473.887 232.638C473.887 232.638 473.887 232.637 473.887 232.636C473.887 232.635 473.887 232.635 473.887 232.634C473.887 232.633 473.887 232.633 473.887 232.632C473.887 232.631 473.887 232.63 473.887 232.63C473.887 232.629 473.887 232.628 473.887 232.627C473.887 232.627 473.887 232.626 473.887 232.625C473.887 232.625 473.887 232.624 473.887 232.623C473.887 232.622 473.887 232.622 473.887 232.621C473.887 232.62 473.887 232.619 473.887 232.619C473.887 232.618 473.887 232.617 473.887 232.617C473.887 232.616 473.887 232.615 473.887 232.614C473.887 232.614 473.887 232.613 473.887 232.612C473.887 232.612 473.887 232.611 473.887 232.61C473.887 232.609 473.887 232.609 473.887 232.608C473.887 232.607 473.887 232.606 473.887 232.606C473.887 232.605 473.887 232.604 473.887 232.604C473.887 232.603 473.887 232.602 473.887 232.601C473.887 232.601 473.887 232.6 473.887 232.599C473.887 232.599 473.887 232.598 473.887 232.597C473.887 232.596 473.887 232.596 473.887 232.595C473.887 232.594 473.887 232.594 473.887 232.593C473.887 232.592 473.887 232.591 473.887 232.591C473.887 232.59 473.887 232.589 473.887 232.588C473.887 232.588 473.887 232.587 473.887 232.586C473.887 232.586 473.887 232.585 473.887 232.584C473.887 232.583 473.887 232.583 473.887 232.582C473.887 232.581 473.887 232.581 473.887 232.58C473.887 232.579 473.887 232.578 473.887 232.578C473.887 232.577 473.887 232.576 473.887 232.576C473.887 232.575 473.887 232.574 473.887 232.573C473.887 232.573 473.887 232.572 473.887 232.571C473.887 232.571 473.887 232.57 473.887 232.569C473.887 232.568 473.887 232.568 473.887 232.567C473.887 232.566 473.887 232.565 473.887 232.565C473.887 232.564 473.887 232.563 473.887 232.563C473.887 232.562 473.887 232.561 473.887 232.56C473.887 232.56 473.887 232.559 473.887 232.558C473.887 232.558 473.887 232.557 473.887 232.556C473.887 232.555 473.887 232.555 473.887 232.554C473.887 232.553 473.887 232.553 473.887 232.552C473.887 232.551 473.887 232.55 473.887 232.55C473.887 232.549 473.887 232.548 473.887 232.548C473.887 232.547 473.887 232.546 473.887 232.545C473.887 232.545 473.887 232.544 473.887 232.543C473.887 232.543 473.887 232.542 473.887 232.541C473.887 232.54 473.887 232.54 473.887 232.539C473.887 232.538 473.887 232.538 473.887 232.537C473.887 232.536 473.887 232.535 473.887 232.535C473.887 232.534 473.887 232.533 473.887 232.533C473.887 232.532 473.887 232.531 473.887 232.53C473.887 232.53 473.887 232.529 473.887 232.528C473.887 232.528 473.887 232.527 473.887 232.526C473.887 232.525 473.887 232.525 473.887 232.524C473.887 232.523 473.887 232.523 473.887 232.522C473.887 232.521 473.887 232.52 473.887 232.52C473.887 232.519 473.887 232.518 473.887 232.518C473.887 232.517 473.887 232.516 473.887 232.516C473.887 232.515 473.887 232.514 473.887 232.513C473.887 232.513 473.887 232.512 473.887 232.511C473.887 232.511 473.887 232.51 473.887 232.509C473.887 232.508 473.887 232.508 473.887 232.507C473.887 232.506 473.887 232.506 473.887 232.505C473.887 232.504 473.887 232.503 473.887 232.503C473.887 232.502 473.887 232.501 473.887 232.501C473.887 232.5 473.887 232.499 473.887 232.498C473.887 232.498 473.887 232.497 473.887 232.496C473.887 232.496 473.887 232.495 473.887 232.494C473.887 232.493 473.887 232.493 473.887 232.492C473.887 232.491 473.887 232.491 473.887 232.49C473.887 232.489 473.887 232.489 473.887 232.488C473.887 232.487 473.887 232.486 473.887 232.486C473.887 232.485 473.887 232.484 473.887 232.484C473.887 232.483 473.887 232.482 473.887 232.481C473.887 232.481 473.887 232.48 473.887 232.479C473.887 232.479 473.887 232.478 473.887 232.477C473.887 232.477 473.887 232.476 473.887 232.475C473.887 232.474 473.887 232.474 473.887 232.473C473.887 232.472 473.887 232.472 473.887 232.471C473.887 232.47 473.887 232.469 473.887 232.469C473.887 232.468 473.887 232.467 473.887 232.467C473.887 232.466 473.887 232.465 473.887 232.465C473.887 232.464 473.887 232.463 473.887 232.462C473.887 232.462 473.887 232.461 473.887 232.46C473.887 232.46 473.887 232.459 473.887 232.458C473.887 232.457 473.887 232.457 473.887 232.456C473.887 232.455 473.887 232.455 473.887 232.454C473.887 232.453 473.887 232.453 473.887 232.452C473.887 232.451 473.887 232.45 473.887 232.45C473.887 232.449 473.887 232.448 473.887 232.448C473.887 232.447 473.887 232.446 473.887 232.445C473.887 232.445 473.887 232.444 473.887 232.443C473.887 232.443 473.887 232.442 473.887 232.441C473.887 232.441 473.887 232.44 473.887 232.439C473.887 232.438 473.887 232.438 473.887 232.437C473.887 232.436 473.887 232.436 473.887 232.435C473.887 232.434 473.887 232.434 473.887 232.433C473.887 232.432 473.887 232.431 473.887 232.431C473.887 232.43 473.887 232.429 473.887 232.429C473.887 232.428 473.887 232.427 473.887 232.427C473.887 232.426 473.887 232.425 473.887 232.424C473.887 232.424 473.887 232.423 473.887 232.422C473.887 232.422 473.887 232.421 473.887 232.42C473.887 232.42 473.887 232.419 473.887 232.418C473.887 232.417 473.887 232.417 473.887 232.416C473.887 232.415 473.887 232.415 473.887 232.414C473.887 232.413 473.887 232.413 473.887 232.412C473.887 232.411 473.887 232.41 473.887 232.41C473.887 232.409 473.887 232.408 473.887 232.408C473.887 232.407 473.887 232.406 473.887 232.406C473.887 232.405 473.887 232.404 473.887 232.403C473.887 232.403 473.887 232.402 473.887 232.401C473.887 232.401 473.887 232.4 473.887 232.399C473.887 232.399 473.887 232.398 473.887 232.397C473.887 232.396 473.887 232.396 473.887 232.395C473.887 232.394 473.887 232.394 473.887 232.393C473.887 232.392 473.887 232.392 473.887 232.391C473.887 232.39 473.887 232.39 473.887 232.389C473.887 232.388 473.887 232.387 473.887 232.387C473.887 232.386 473.887 232.385 473.887 232.385C473.887 232.384 473.887 232.383 473.887 232.383C473.887 232.382 473.887 232.381 473.887 232.38C473.887 232.38 473.887 232.379 473.887 232.378C473.887 232.378 473.887 232.377 473.887 232.376C473.887 232.376 473.887 232.375 473.887 232.374C473.887 232.374 473.887 232.373 473.887 232.372C473.887 232.371 473.887 232.371 473.887 232.37C473.887 232.369 473.887 232.369 473.887 232.368C473.887 232.367 473.887 232.367 473.887 232.366C473.887 232.365 473.887 232.364 473.887 232.364C473.887 232.363 473.887 232.362 473.887 232.362C473.887 232.361 473.887 232.36 473.887 232.36C473.887 232.359 473.887 232.358 473.887 232.358C473.887 232.357 473.887 232.356 473.887 232.355C473.887 232.355 473.887 232.354 473.887 232.353C473.887 232.353 473.887 232.352 473.887 232.351C473.887 232.351 473.887 232.35 473.887 232.349C473.887 232.349 473.887 232.348 473.887 232.347C473.887 232.346 473.887 232.346 473.887 232.345C473.887 232.344 473.887 232.344 473.887 232.343C473.887 232.342 473.887 232.342 473.887 232.341C473.887 232.34 473.887 232.34 473.887 232.339C473.887 232.338 473.887 232.337 473.887 232.337C473.887 232.336 473.887 232.335 473.887 232.335C473.887 232.334 473.887 232.333 473.887 232.333C473.887 232.332 473.887 232.331 473.887 232.331C473.887 232.33 473.887 232.329 473.887 232.329C473.887 232.328 473.887 232.327 473.887 232.326C473.887 232.326 473.887 232.325 473.887 232.324C473.887 232.324 473.887 232.323 473.887 232.322C473.887 232.322 473.887 232.321 473.887 232.32C473.887 232.32 473.887 232.319 473.887 232.318C473.887 232.318 473.887 232.317 473.887 232.316C473.887 232.315 473.887 232.315 473.887 232.314C473.887 232.313 473.887 232.313 473.887 232.312C473.887 232.311 473.887 232.311 473.887 232.31C473.887 232.309 473.887 232.309 473.887 232.308C473.887 232.307 473.887 232.307 473.887 232.306C473.887 232.305 473.887 232.304 473.887 232.304C473.887 232.303 473.887 232.302 473.887 232.302C473.887 232.301 473.887 232.3 473.887 232.3C473.887 232.299 473.887 232.298 473.887 232.298C473.887 232.297 473.887 232.296 473.887 232.296C473.887 232.295 473.887 232.294 473.887 232.293C473.887 232.293 473.887 232.292 473.887 232.291C473.887 232.291 473.887 232.29 473.887 232.289C473.887 232.289 473.887 232.288 473.887 232.287C473.887 232.287 473.887 232.286 473.887 232.285C473.887 232.285 473.887 232.284 473.887 232.283C473.887 232.283 473.887 232.282 473.887 232.281C473.887 232.28 473.887 232.28 473.887 232.279C473.887 232.278 473.887 232.278 473.887 232.277C473.887 232.276 473.887 232.276 473.887 232.275C473.887 232.274 473.887 232.274 473.887 232.273C473.887 232.272 473.887 232.272 473.887 232.271C473.887 232.27 473.887 232.27 473.887 232.269C473.887 232.268 473.887 232.267 473.887 232.267C473.887 232.266 473.887 232.265 473.887 232.265C473.887 232.264 473.887 232.263 473.887 232.263C473.887 232.262 473.887 232.261 473.887 232.261C473.887 232.26 473.887 232.259 473.887 232.259C473.887 232.258 473.887 232.257 473.887 232.257C473.887 232.256 473.887 232.255 473.887 232.255C473.887 232.254 473.887 232.253 473.887 232.252C473.887 232.252 473.887 232.251 473.887 232.25C473.887 232.25 473.887 232.249 473.887 232.248C473.887 232.248 473.887 232.247 473.887 232.246C473.887 232.246 473.887 232.245 473.887 232.244C473.887 232.244 473.887 232.243 473.887 232.242C473.887 232.242 473.887 232.241 473.887 232.24C473.887 232.24 473.887 232.239 473.887 232.238C473.887 232.238 473.887 232.237 473.887 232.236C473.887 232.236 473.887 232.235 473.887 232.234C473.887 232.233 473.887 232.233 473.887 232.232C473.887 232.231 473.887 232.231 473.887 232.23C473.887 232.229 473.887 232.229 473.887 232.228C473.887 232.227 473.887 232.227 473.887 232.226C473.887 232.225 473.887 232.225 473.887 232.224C473.887 232.223 473.887 232.223 473.887 232.222C473.887 232.221 473.887 232.221 473.887 232.22C473.887 232.219 473.887 232.219 473.887 232.218C473.887 232.217 473.887 232.217 473.887 232.216C473.887 232.215 473.887 232.215 473.887 232.214C473.887 232.213 473.887 232.212 473.887 232.212C473.887 232.211 473.887 232.21 473.887 232.21C473.887 232.209 473.887 232.208 473.887 232.208C473.887 232.207 473.887 232.206 473.887 232.206C473.887 232.205 473.887 232.204 473.887 232.204C473.887 232.203 473.887 232.202 473.887 232.202C473.887 232.201 473.887 232.2 473.887 232.2C473.887 232.199 473.887 232.198 473.887 232.198C473.887 232.197 473.887 232.196 473.887 232.196C473.887 232.195 473.887 232.194 473.887 232.194C473.887 232.193 473.887 232.192 473.887 232.192C473.887 232.191 473.887 232.19 473.887 232.19C473.887 232.189 473.887 232.188 473.887 232.188C473.887 232.187 473.887 232.186 473.887 232.186C473.887 232.185 473.887 232.184 473.887 232.184C473.887 232.183 473.887 232.182 473.887 232.181C473.887 232.181 473.887 232.18 473.887 232.179C473.887 232.179 473.887 232.178 473.887 232.177C473.887 232.177 473.887 232.176 473.887 232.175C473.887 232.175 473.887 232.174 473.887 232.173C473.887 232.173 473.887 232.172 473.887 232.171C473.887 232.171 473.887 232.17 473.887 232.169C473.887 232.169 473.887 232.168 473.887 232.167C473.887 232.167 473.887 232.166 473.887 232.165C473.887 232.165 473.887 232.164 473.887 232.163C473.887 232.163 473.887 232.162 473.887 232.161C473.887 232.161 473.887 232.16 473.887 232.159C473.887 232.159 473.887 232.158 473.887 232.157C473.887 232.157 473.887 232.156 473.887 232.155C473.887 232.155 473.887 232.154 473.887 232.153C473.887 232.153 473.887 232.152 473.887 232.151C473.887 232.151 473.887 232.15 473.887 232.149C473.887 232.149 473.887 232.148 473.887 232.147C473.887 232.147 473.887 232.146 473.887 232.145C473.887 232.145 473.887 232.144 473.887 232.143C473.887 232.143 473.887 232.142 473.887 232.141C473.887 232.141 473.887 232.14 473.887 232.139C473.887 232.139 473.887 232.138 473.887 232.137C473.887 232.137 473.887 232.136 473.887 232.135C473.887 232.135 473.887 232.134 473.887 232.133C473.887 232.133 473.887 232.132 473.887 232.131C473.887 232.131 473.887 232.13 473.887 232.129C473.887 232.129 473.887 232.128 473.887 232.127C473.887 232.127 473.887 232.126 473.887 232.125C473.887 232.125 473.887 232.124 473.887 232.123C473.887 232.123 473.887 232.122 473.887 232.121C473.887 232.121 473.887 232.12 473.887 232.119C473.887 232.119 473.887 232.118 473.887 232.117C473.887 232.117 473.887 232.116 473.887 232.115C473.887 232.115 473.887 232.114 473.887 232.113C473.887 232.113 473.887 232.112 473.887 232.111C473.887 232.111 473.887 232.11 473.887 232.109C473.887 232.109 473.887 232.108 473.887 232.107C473.887 232.107 473.887 232.106 473.887 232.105C473.887 232.105 473.887 232.104 473.887 232.103C473.887 232.103 473.887 232.102 473.887 232.101C473.887 232.101 473.887 232.1 473.887 232.099C473.887 232.099 473.887 232.098 473.887 232.097C473.887 232.097 473.887 232.096 473.887 232.096C473.887 232.095 473.887 232.094 473.887 232.094C473.887 232.093 473.887 232.092 473.887 232.092C473.887 232.091 473.887 232.09 473.887 232.09C473.887 232.089 473.887 232.088 473.887 232.088C473.887 232.087 473.887 232.086 473.887 232.086C473.887 232.085 473.887 232.084 473.887 232.084C473.887 232.083 473.887 232.082 473.887 232.082C473.887 232.081 473.887 232.08 473.887 232.08C473.887 232.079 473.887 232.078 473.887 232.078C473.887 232.077 473.887 232.076 473.887 232.076C473.887 232.075 473.887 232.074 473.887 232.074C473.887 232.073 473.887 232.072 473.887 232.072C473.887 232.071 473.887 232.07 473.887 232.07C473.887 232.069 473.887 232.068 473.887 232.068C473.887 232.067 473.887 232.066 473.887 232.066C473.887 232.065 473.887 232.065 473.887 232.064C473.887 232.063 473.887 232.063 473.887 232.062C473.887 232.061 473.887 232.061 473.887 232.06C473.887 232.059 473.887 232.059 473.887 232.058C473.887 232.057 473.887 232.057 473.887 232.056C473.887 232.055 473.887 232.055 473.887 232.054C473.887 232.053 473.887 232.053 473.887 232.052C473.887 232.051 473.887 232.051 473.887 232.05C473.887 232.049 473.887 232.049 473.887 232.048C473.887 232.047 473.887 232.047 473.887 232.046C473.887 232.045 473.887 232.045 473.887 232.044C473.887 232.044 473.887 232.043 473.887 232.042C473.887 232.042 473.887 232.041 473.887 232.04C473.887 232.04 473.887 232.039 473.887 232.038C473.887 232.038 473.887 232.037 473.887 232.036C473.887 232.036 473.887 232.035 473.887 232.034C473.887 232.034 473.887 232.033 473.887 232.032C473.887 232.032 473.887 232.031 473.887 232.03C473.887 232.03 473.887 232.029 473.887 232.028C473.887 232.028 473.887 232.027 473.887 232.027C473.887 232.026 473.887 232.025 473.887 232.025C473.887 232.024 473.887 232.023 473.887 232.023C473.887 232.022 473.887 232.021 473.887 232.021C473.887 232.02 473.887 232.019 473.887 232.019C473.887 232.018 473.887 232.017 473.887 232.017C473.887 232.016 473.887 232.015 473.887 232.015C473.887 232.014 473.887 232.013 473.887 232.013C473.887 232.012 473.887 232.012 473.887 232.011C473.887 232.01 473.887 232.01 473.887 232.009C473.887 232.008 473.887 232.008 473.887 232.007C473.887 232.006 473.887 232.006 473.887 232.005C473.887 232.004 473.887 232.004 473.887 232.003C473.887 232.002 473.887 232.002 473.887 232.001C473.887 232 473.887 232 473.887 231.999C473.887 231.999 473.887 231.998 473.887 231.997C473.887 231.997 473.887 231.996 473.887 231.995C473.887 231.995 473.887 231.994 473.887 231.993C473.887 231.993 473.887 231.992 473.887 231.991C473.887 231.991 473.887 231.99 473.887 231.989C473.887 231.989 473.887 231.988 473.887 231.987C473.887 231.987 473.887 231.986 473.887 231.986C473.887 231.985 473.887 231.984 473.887 231.984C473.887 231.983 473.887 231.982 473.887 231.982C473.887 231.981 473.887 231.98 473.887 231.98C473.887 231.979 473.887 231.978 473.887 231.978C473.887 231.977 473.887 231.976 473.887 231.976C473.887 231.975 473.887 231.975 473.887 231.974C473.887 231.973 473.887 231.973 473.887 231.972C473.887 231.971 473.887 231.971 473.887 231.97C473.887 231.969 473.887 231.969 473.887 231.968C473.887 231.967 473.887 231.967 473.887 231.966C473.887 231.966 473.887 231.965 473.887 231.964C473.887 231.964 473.887 231.963 473.887 231.962C473.887 231.962 473.887 231.961 473.887 231.96C473.887 231.96 473.887 231.959 473.887 231.958C473.887 231.958 473.887 231.957 473.887 231.956C473.887 231.956 473.887 231.955 473.887 231.955C473.887 231.954 473.887 231.953 473.887 231.953C473.887 231.952 473.887 231.951 473.887 231.951C473.887 231.95 473.887 231.949 473.887 231.949C473.887 231.948 473.887 231.947 473.887 231.947C473.887 231.946 473.887 231.946 473.887 231.945C473.887 231.944 473.887 231.944 473.887 231.943C473.887 231.942 473.887 231.942 473.887 231.941C473.887 231.94 473.887 231.94 473.887 231.939C473.887 231.938 473.887 231.938 473.887 231.937C473.887 231.937 473.887 231.936 473.887 231.935C473.887 231.935 473.887 231.934 473.887 231.933C473.887 231.933 473.887 231.932 473.887 231.931C473.887 231.931 473.887 231.93 473.887 231.929C473.887 231.929 473.887 231.928 473.887 231.928C473.887 231.927 473.887 231.926 473.887 231.926C473.887 231.925 473.887 231.924 473.887 231.924C473.887 231.923 473.887 231.922 473.887 231.922C473.887 231.921 473.887 231.921 473.887 231.92C473.887 231.919 473.887 231.919 473.887 231.918C473.887 231.917 473.887 231.917 473.887 231.916C473.887 231.915 473.887 231.915 473.887 231.914C473.887 231.914 473.887 231.913 473.887 231.912C473.887 231.912 473.887 231.911 473.887 231.91C473.887 231.91 473.887 231.909 473.887 231.908C473.887 231.908 473.887 231.907 473.887 231.906C473.887 231.906 473.887 231.905 473.887 231.905C473.887 231.904 473.887 231.903 473.887 231.903C473.887 231.902 473.887 231.901 473.887 231.901C473.887 231.9 473.887 231.899 473.887 231.899C473.887 231.898 473.887 231.898 473.887 231.897C473.887 231.896 473.887 231.896 473.887 231.895C473.887 231.894 473.887 231.894 473.887 231.893C473.887 231.892 473.887 231.892 473.887 231.891C473.887 231.891 473.887 231.89 473.887 231.889C473.887 231.889 473.887 231.888 473.887 231.887C473.887 231.887 473.887 231.886 473.887 231.885C473.887 231.885 473.887 231.884 473.887 231.884C473.887 231.883 473.887 231.882 473.887 231.882C473.887 231.881 473.887 231.88 473.887 231.88C473.887 231.879 473.887 231.879 473.887 231.878C473.887 231.877 473.887 231.877 473.887 231.876C473.887 231.875 473.887 231.875 473.887 231.874C473.887 231.873 473.887 231.873 473.887 231.872C473.887 231.872 473.887 231.871 473.887 231.87C473.887 231.87 473.887 231.869 473.887 231.868C473.887 231.868 473.887 231.867 473.887 231.866C473.887 231.866 473.887 231.865 473.887 231.865C473.887 231.864 473.887 231.863 473.887 231.863C473.887 231.862 473.887 231.861 473.887 231.861C473.887 231.86 473.887 231.86 473.887 231.859C473.887 231.858 473.887 231.858 473.887 231.857C473.887 231.856 473.887 231.856 473.887 231.855C473.887 231.854 473.887 231.854 473.887 231.853C473.887 231.853 473.887 231.852 473.887 231.851C473.887 231.851 473.887 231.85 473.887 231.849C473.887 231.849 473.887 231.848 473.887 231.848C473.887 231.847 473.887 231.846 473.887 231.846C473.887 231.845 473.887 231.844 473.887 231.844C473.887 231.843 473.887 231.842 473.887 231.842C473.887 231.841 473.887 231.841 473.887 231.84C473.887 231.839 473.887 231.839 473.887 231.838C473.887 231.837 473.887 231.837 473.887 231.836C473.887 231.836 473.887 231.835 473.887 231.834C473.887 231.834 473.887 231.833 473.887 231.832C473.887 231.832 473.887 231.831 473.887 231.831C473.887 231.83 473.887 231.829 473.887 231.829C473.887 231.828 473.887 231.827 473.887 231.827C473.887 231.826 473.887 231.826 473.887 231.825C473.887 231.824 473.887 231.824 473.887 231.823C473.887 231.822 473.887 231.822 473.887 231.821C473.887 231.821 473.887 231.82 473.887 231.819C473.887 231.819 473.887 231.818 473.887 231.817C473.887 231.817 473.887 231.816 473.887 231.816C473.887 231.815 473.887 231.814 473.887 231.814C473.887 231.813 473.887 231.812 473.887 231.812C473.887 231.811 473.887 231.811 473.887 231.81C473.887 231.809 473.887 231.809 473.887 231.808H472.887ZM472.887 232.864V231.864H429.015V232.864V233.864H472.887V232.864ZM429.015 232.864H430.015V227.776H429.015H428.015V232.864H429.015ZM429.015 227.776V228.776H469.239V227.776V226.776H429.015V227.776ZM469.239 227.776L468.639 226.976L465.951 228.992L466.551 229.792L467.151 230.592L469.839 228.576L469.239 227.776ZM466.551 229.792H467.551C467.551 225.993 466.717 222.587 465.021 219.602L464.151 220.096L463.282 220.59C464.786 223.237 465.551 226.295 465.551 229.792H466.551ZM464.151 220.096L465.034 219.625C463.416 216.592 461.178 214.214 458.327 212.517L457.815 213.376L457.304 214.235C459.828 215.738 461.815 217.84 463.269 220.567L464.151 220.096ZM457.815 213.376L458.327 212.517C455.465 210.813 452.18 209.976 448.503 209.976V210.976V211.976C451.866 211.976 454.789 212.739 457.304 214.235L457.815 213.376ZM448.503 210.976V209.976C444.886 209.976 441.606 210.815 438.689 212.511L439.191 213.376L439.694 214.241C442.28 212.737 445.208 211.976 448.503 211.976V210.976ZM439.191 213.376L438.689 212.511C435.772 214.207 433.498 216.586 431.877 219.625L432.759 220.096L433.642 220.567C435.092 217.846 437.107 215.745 439.694 214.241L439.191 213.376ZM432.759 220.096L431.877 219.625C430.254 222.669 429.455 226.131 429.455 229.984H430.455H431.455C431.455 226.413 432.193 223.283 433.642 220.567L432.759 220.096ZM430.455 229.984H429.455V231.04H430.455H431.455V229.984H430.455ZM430.455 231.04H429.455C429.455 235.029 430.321 238.595 432.081 241.708L432.951 241.216L433.822 240.724C432.254 237.949 431.455 234.731 431.455 231.04H430.455ZM432.951 241.216L432.094 241.73C433.915 244.765 436.413 247.16 439.571 248.907L440.055 248.032L440.539 247.157C437.682 245.576 435.444 243.427 433.809 240.702L432.951 241.216ZM440.055 248.032L439.593 248.919C442.825 250.602 446.475 251.432 450.519 251.432V250.432V249.432C446.755 249.432 443.429 248.662 440.517 247.145L440.055 248.032ZM450.519 250.432V251.432C453.712 251.432 456.691 250.866 459.446 249.724L459.063 248.8L458.68 247.876C456.187 248.91 453.471 249.432 450.519 249.432V250.432ZM459.063 248.8L459.438 249.727C462.277 248.578 464.712 246.818 466.735 244.459L465.975 243.808L465.216 243.157C463.398 245.278 461.225 246.846 458.688 247.873L459.063 248.8ZM465.975 243.808L465.221 244.464L469.061 248.88L469.815 248.224L470.57 247.568L466.73 243.152L465.975 243.808ZM469.815 248.224L469.047 247.584C466.916 250.141 464.234 252.095 460.984 253.444L461.367 254.368L461.751 255.292C465.284 253.825 468.235 251.683 470.583 248.864L469.815 248.224ZM461.367 254.368L460.978 253.447C457.786 254.797 454.241 255.48 450.327 255.48V256.48V257.48C454.478 257.48 458.292 256.755 461.757 255.289L461.367 254.368ZM488.071 256H487.071V257H488.071V256ZM488.071 205.6V204.6H487.071V205.6H488.071ZM533.383 205.6H534.383V204.6H533.383V205.6ZM533.383 256V257H534.383V256H533.383ZM526.567 256H525.567V257H526.567V256ZM526.567 209.728L527.293 209.04L525.567 207.218V209.728H526.567ZM528.295 211.552V212.552H530.62L529.021 210.864L528.295 211.552ZM493.159 211.552L492.433 210.864L490.834 212.552H493.159V211.552ZM494.887 209.728H495.887V207.218L494.161 209.04L494.887 209.728ZM494.887 256V257H495.887V256H494.887ZM488.071 256H489.071V205.6H488.071H487.071V256H488.071ZM488.071 205.6V206.6H533.383V205.6V204.6H488.071V205.6ZM533.383 205.6H532.383V256H533.383H534.383V205.6H533.383ZM533.383 256V255H526.567V256V257H533.383V256ZM526.567 256H527.567V209.728H526.567H525.567V256H526.567ZM526.567 209.728L525.841 210.416L527.569 212.24L528.295 211.552L529.021 210.864L527.293 209.04L526.567 209.728ZM528.295 211.552V210.552H493.159V211.552V212.552H528.295V211.552ZM493.159 211.552L493.885 212.24L495.613 210.416L494.887 209.728L494.161 209.04L492.433 210.864L493.159 211.552ZM494.887 209.728H493.887V256H494.887H495.887V209.728H494.887ZM494.887 256V255H488.071V256V257H494.887V256ZM546.039 256.384L545.874 257.37L545.886 257.372L546.039 256.384ZM543.543 255.904L542.546 255.822L542.474 256.698L543.333 256.882L543.543 255.904ZM544.023 250.048L544.164 249.058L543.113 248.908L543.026 249.966L544.023 250.048ZM545.271 250.336L544.954 251.285L545.04 251.313L545.129 251.326L545.271 250.336ZM551.319 248.128L550.55 247.488L550.542 247.497L550.534 247.507L551.319 248.128ZM554.199 241.984L553.228 241.741L553.228 241.741L554.199 241.984ZM555.543 233.344L556.539 233.424L556.539 233.422L555.543 233.344ZM556.215 223.552L557.213 223.611L557.213 223.6L556.215 223.552ZM557.079 205.6V204.6H556.125L556.08 205.552L557.079 205.6ZM594.039 205.6H595.039V204.6H594.039V205.6ZM594.039 256V257H595.039V256H594.039ZM587.223 256H586.223V257H587.223V256ZM587.223 209.536L587.982 208.885L586.223 206.833V209.536H587.223ZM588.951 211.552V212.552H591.125L589.71 210.901L588.951 211.552ZM561.495 211.552L560.703 210.941L559.458 212.552H561.495V211.552ZM563.127 209.44L564.125 209.493L564.293 206.294L562.335 208.829L563.127 209.44ZM562.359 224.032L561.36 223.979L561.359 223.988L562.359 224.032ZM561.303 236.512L560.311 236.384L560.31 236.392L560.309 236.4L561.303 236.512ZM559.095 246.976L558.148 246.654L558.145 246.663L558.142 246.672L559.095 246.976ZM555.062 254.08L555.756 254.8L555.763 254.794L555.77 254.787L555.062 254.08ZM548.439 256.576V255.576C547.726 255.576 546.977 255.517 546.191 255.396L546.039 256.384L545.886 257.372C546.764 257.507 547.615 257.576 548.439 257.576V256.576ZM546.039 256.384L546.203 255.398C545.452 255.273 544.636 255.116 543.752 254.926L543.543 255.904L543.333 256.882C544.241 257.076 545.089 257.239 545.874 257.37L546.039 256.384ZM543.543 255.904L544.539 255.986L545.019 250.13L544.023 250.048L543.026 249.966L542.546 255.822L543.543 255.904ZM544.023 250.048L543.881 251.038C544.277 251.094 544.633 251.178 544.954 251.285L545.271 250.336L545.587 249.387C545.14 249.238 544.664 249.13 544.164 249.058L544.023 250.048ZM545.271 250.336L545.129 251.326C545.606 251.394 546.04 251.432 546.423 251.432V250.432V249.432C546.165 249.432 545.831 249.406 545.412 249.346L545.271 250.336ZM546.423 250.432V251.432C548.76 251.432 550.687 250.537 552.103 248.749L551.319 248.128L550.534 247.507C549.518 248.791 548.181 249.432 546.423 249.432V250.432ZM551.319 248.128L552.087 248.768C553.489 247.086 554.503 244.888 555.169 242.227L554.199 241.984L553.228 241.741C552.614 244.2 551.708 246.098 550.55 247.488L551.319 248.128ZM554.199 241.984L555.169 242.227C555.824 239.603 556.28 236.667 556.539 233.424L555.543 233.344L554.546 233.264C554.293 236.421 553.853 239.245 553.228 241.741L554.199 241.984ZM555.543 233.344L556.539 233.422C556.796 230.152 557.02 226.881 557.213 223.611L556.215 223.552L555.216 223.493C555.025 226.751 554.801 230.008 554.546 233.266L555.543 233.344ZM556.215 223.552L557.213 223.6L558.077 205.648L557.079 205.6L556.08 205.552L555.216 223.504L556.215 223.552ZM557.079 205.6V206.6H594.039V205.6V204.6H557.079V205.6ZM594.039 205.6H593.039V256H594.039H595.039V205.6H594.039ZM594.039 256V255H587.223V256V257H594.039V256ZM587.223 256H588.223V209.536H587.223H586.223V256H587.223ZM587.223 209.536L586.463 210.187L588.191 212.203L588.951 211.552L589.71 210.901L587.982 208.885L587.223 209.536ZM588.951 211.552V210.552H561.495V211.552V212.552H588.951V211.552ZM561.495 211.552L562.286 212.163L563.918 210.051L563.127 209.44L562.335 208.829L560.703 210.941L561.495 211.552ZM563.127 209.44L562.128 209.387L561.36 223.979L562.359 224.032L563.357 224.085L564.125 209.493L563.127 209.44ZM562.359 224.032L561.359 223.988C561.169 228.314 560.819 232.446 560.311 236.384L561.303 236.512L562.294 236.64C562.81 232.642 563.164 228.454 563.358 224.076L562.359 224.032ZM561.303 236.512L560.309 236.4C559.867 240.314 559.144 243.729 558.148 246.654L559.095 246.976L560.041 247.298C561.093 244.207 561.842 240.646 562.296 236.624L561.303 236.512ZM559.095 246.976L558.142 246.672C557.217 249.571 555.942 251.786 554.355 253.373L555.062 254.08L555.77 254.787C557.639 252.918 559.052 250.397 560.047 247.28L559.095 246.976ZM555.062 254.08L554.369 253.36C552.85 254.822 550.902 255.576 548.439 255.576V256.576V257.576C551.351 257.576 553.819 256.666 555.756 254.8L555.062 254.08ZM613.415 256H612.415V257H613.415V256ZM613.415 205.6V204.6H612.415V205.6H613.415ZM620.231 205.6H621.231V204.6H620.231V205.6ZM620.231 245.632H619.231V248.373L620.996 246.276L620.231 245.632ZM653.927 205.6V204.6H653.461L653.162 204.956L653.927 205.6ZM659.975 205.6H660.975V204.6H659.975V205.6ZM659.975 256V257H660.975V256H659.975ZM653.159 256H652.159V257H653.159V256ZM653.159 215.872H654.159V213.12L652.392 215.23L653.159 215.872ZM619.559 256V257H620.026L620.325 256.642L619.559 256ZM613.415 256H614.415V205.6H613.415H612.415V256H613.415ZM613.415 205.6V206.6H620.231V205.6V204.6H613.415V205.6ZM620.231 205.6H619.231V245.632H620.231H621.231V205.6H620.231ZM620.231 245.632L620.996 246.276L654.692 206.244L653.927 205.6L653.162 204.956L619.466 244.988L620.231 245.632ZM653.927 205.6V206.6H659.975V205.6V204.6H653.927V205.6ZM659.975 205.6H658.975V256H659.975H660.975V205.6H659.975ZM659.975 256V255H653.159V256V257H659.975V256ZM653.159 256H654.159V215.872H653.159H652.159V256H653.159ZM653.159 215.872L652.392 215.23L618.792 255.358L619.559 256L620.325 256.642L653.925 216.514L653.159 215.872ZM619.559 256V255H613.415V256V257H619.559V256ZM679.509 256H678.509V257H679.509V256ZM679.509 205.6V204.6H678.509V205.6H679.509ZM686.325 205.6H687.325V204.6H686.325V205.6ZM686.325 250.048H685.325V251.048H686.325V250.048ZM717.141 250.048V251.048H718.141V250.048H717.141ZM717.141 205.6V204.6H716.141V205.6H717.141ZM723.957 205.6H724.957V204.6H723.957V205.6ZM723.957 256V257H724.957V256H723.957ZM725.685 268.192H724.685V269.192H725.685V268.192ZM725.685 255.424L726.001 254.475L724.685 254.037V255.424H725.685ZM727.413 256V257L727.729 255.051L727.413 256ZM717.141 256H716.141V257H717.141V256ZM717.141 250.048V249.048H716.141V250.048H717.141ZM732.117 250.048H733.117V249.048H732.117V250.048ZM732.117 268.192V269.192H733.117V268.192H732.117ZM679.509 256H680.509V205.6H679.509H678.509V256H679.509ZM679.509 205.6V206.6H686.325V205.6V204.6H679.509V205.6ZM686.325 205.6H685.325V250.048H686.325H687.325V205.6H686.325ZM686.325 250.048V251.048H717.141V250.048V249.048H686.325V250.048ZM717.141 250.048H718.141V205.6H717.141H716.141V250.048H717.141ZM717.141 205.6V206.6H723.957V205.6V204.6H717.141V205.6ZM723.957 205.6H722.957V256H723.957H724.957V205.6H723.957ZM723.957 256V255H679.509V256V257H723.957V256ZM725.685 268.192H726.685V255.424H725.685H724.685V268.192H725.685ZM725.685 255.424L725.368 256.373L727.096 256.949L727.413 256L727.729 255.051L726.001 254.475L725.685 255.424ZM727.413 256V255H717.141V256V257H727.413V256ZM717.141 256H718.141V250.048H717.141H716.141V256H717.141ZM717.141 250.048V251.048H732.117V250.048V249.048H717.141V250.048ZM732.117 250.048H731.117V268.192H732.117H733.117V250.048H732.117ZM732.117 268.192V267.192H725.685V268.192V269.192H732.117V268.192ZM776.43 256H775.43V257H776.43V256ZM776.43 244.864H777.43V244.786L777.417 244.708L776.43 244.864ZM776.142 243.04H775.142V243.118L775.154 243.196L776.142 243.04ZM772.494 214.528L771.796 215.245L771.806 215.254L772.494 214.528ZM752.526 212.704L752.179 211.766L752.179 211.766L752.526 212.704ZM745.038 217.024L744.181 217.541L744.798 218.562L745.696 217.777L745.038 217.024ZM741.966 211.936L741.318 211.174L740.67 211.725L741.109 212.453L741.966 211.936ZM751.182 206.944L751.488 207.896L751.495 207.894L751.503 207.891L751.182 206.944ZM777.582 210.016L776.902 210.749L776.908 210.756L776.915 210.762L777.582 210.016ZM782.958 256V257H783.958V256H782.958ZM749.166 254.656L748.744 255.563L748.756 255.569L748.769 255.574L749.166 254.656ZM742.83 249.472L741.994 250.021L742.001 250.032L742.83 249.472ZM742.446 234.688L741.584 234.181L741.579 234.189L742.446 234.688ZM748.59 229.504L749.003 230.414L749.012 230.41L748.59 229.504ZM777.486 227.488H778.486V226.488H777.486V227.488ZM777.486 232.576V233.576H778.486V232.576H777.486ZM750.126 235.168L749.457 234.425L749.45 234.43L749.444 234.436L750.126 235.168ZM750.702 248.512L751.312 247.72L751.312 247.72L750.702 248.512ZM769.998 248.512L770.529 249.359L770.534 249.356L769.998 248.512ZM776.142 240.832L777.092 240.522L776.218 237.846L775.208 240.473L776.142 240.832ZM777.678 245.536L778.611 245.895L778.738 245.563L778.628 245.226L777.678 245.536ZM770.958 253.504L770.431 252.654L770.423 252.659L770.958 253.504ZM776.43 256H777.43V244.864H776.43H775.43V256H776.43ZM776.43 244.864L777.417 244.708L777.129 242.884L776.142 243.04L775.154 243.196L775.442 245.02L776.43 244.864ZM776.142 243.04H777.142V224.416H776.142H775.142V243.04H776.142ZM776.142 224.416H777.142C777.142 219.935 775.865 216.344 773.181 213.802L772.494 214.528L771.806 215.254C773.986 217.32 775.142 220.321 775.142 224.416H776.142ZM772.494 214.528L773.191 213.811C770.568 211.26 766.721 210.072 761.838 210.072V211.072V212.072C766.426 212.072 769.683 213.188 771.796 215.245L772.494 214.528ZM761.838 211.072V210.072C758.46 210.072 755.238 210.635 752.179 211.766L752.526 212.704L752.872 213.642C755.701 212.597 758.687 212.072 761.838 212.072V211.072ZM752.526 212.704L752.179 211.766C749.138 212.89 746.532 214.388 744.379 216.271L745.038 217.024L745.696 217.777C747.639 216.076 750.025 214.694 752.872 213.642L752.526 212.704ZM745.038 217.024L745.894 216.507L742.822 211.419L741.966 211.936L741.109 212.453L744.181 217.541L745.038 217.024ZM741.966 211.936L742.613 212.698C745.061 210.617 748.014 209.013 751.488 207.896L751.182 206.944L750.875 205.992C747.181 207.179 743.99 208.903 741.318 211.174L741.966 211.936ZM751.182 206.944L751.503 207.891C754.978 206.712 758.645 206.12 762.51 206.12V205.12V204.12C758.438 204.12 754.553 204.744 750.86 205.997L751.182 206.944ZM762.51 205.12V206.12C768.877 206.12 773.624 207.71 776.902 210.749L777.582 210.016L778.261 209.283C774.499 205.794 769.198 204.12 762.51 204.12V205.12ZM777.582 210.016L776.915 210.762C780.217 213.709 781.958 218.287 781.958 224.704H782.958H783.958C783.958 217.937 782.114 212.723 778.248 209.27L777.582 210.016ZM782.958 224.704H781.958V256H782.958H783.958V224.704H782.958ZM782.958 256V255H776.43V256V257H782.958V256ZM759.054 256.48V255.48C755.383 255.48 752.227 254.889 749.562 253.738L749.166 254.656L748.769 255.574C751.736 256.855 755.172 257.48 759.054 257.48V256.48ZM749.166 254.656L749.587 253.749C746.974 252.534 745.013 250.915 743.658 248.912L742.83 249.472L742.001 250.032C743.59 252.381 745.853 254.218 748.744 255.563L749.166 254.656ZM742.83 249.472L743.665 248.923C742.308 246.858 741.622 244.492 741.622 241.792H740.622H739.622C739.622 244.852 740.407 247.606 741.994 250.021L742.83 249.472ZM740.622 241.792H741.622C741.622 239.329 742.19 237.136 743.312 235.187L742.446 234.688L741.579 234.189C740.269 236.464 739.622 239.007 739.622 241.792H740.622ZM742.446 234.688L743.307 235.195C744.462 233.233 746.332 231.629 749.003 230.414L748.59 229.504L748.176 228.594C745.215 229.939 742.989 231.791 741.584 234.181L742.446 234.688ZM748.59 229.504L749.012 230.41C751.71 229.151 755.388 228.488 760.109 228.488V227.488V226.488C755.231 226.488 751.229 227.169 748.167 228.598L748.59 229.504ZM760.109 227.488V228.488H777.486V227.488V226.488H760.109V227.488ZM777.486 227.488H776.486V232.576H777.486H778.486V227.488H777.486ZM777.486 232.576V231.576H760.302V232.576V233.576H777.486V232.576ZM760.302 232.576V231.576C755.383 231.576 751.665 232.437 749.457 234.425L750.126 235.168L750.794 235.911C752.426 234.443 755.492 233.576 760.302 233.576V232.576ZM750.126 235.168L749.444 234.436C747.383 236.355 746.342 238.765 746.342 241.6H747.342H748.342C748.342 239.315 749.156 237.437 750.807 235.9L750.126 235.168ZM747.342 241.6H746.342C746.342 244.783 747.6 247.382 750.091 249.304L750.702 248.512L751.312 247.72C749.323 246.186 748.342 244.177 748.342 241.6H747.342ZM750.702 248.512L750.091 249.304C752.566 251.214 755.948 252.104 760.109 252.104V251.104V250.104C756.207 250.104 753.317 249.266 751.312 247.72L750.702 248.512ZM760.109 251.104V252.104C764.103 252.104 767.591 251.204 770.529 249.359L769.998 248.512L769.466 247.665C766.9 249.276 763.796 250.104 760.109 250.104V251.104ZM769.998 248.512L770.534 249.356C773.544 247.441 775.724 244.704 777.075 241.191L776.142 240.832L775.208 240.473C773.999 243.616 772.083 245.999 769.461 247.668L769.998 248.512ZM776.142 240.832L775.191 241.142L776.727 245.846L777.678 245.536L778.628 245.226L777.092 240.522L776.142 240.832ZM777.678 245.536L776.744 245.177C775.547 248.29 773.456 250.778 770.431 252.654L770.958 253.504L771.484 254.354C774.859 252.262 777.248 249.438 778.611 245.895L777.678 245.536ZM770.958 253.504L770.423 252.659C767.488 254.516 763.719 255.48 759.054 255.48V256.48V257.48C763.988 257.48 768.155 256.46 771.492 254.349L770.958 253.504Z" fill="#3B3B3B" mask="url(#path-10-outside-2_20_7)"/>
</svg>
